<?xml version="1.0" encoding="UTF-8"?>
<svg width="14px" height="44px" viewBox="0 0 14 44" version="1.1" xmlns="http://www.w3.org/2000/svg" xmlns:xlink="http://www.w3.org/1999/xlink">
    <!-- Generator: sketchtool 49.1 (51147) - http://www.bohemiancoding.com/sketch -->
    <title>8A2EC754-6EE5-424A-969C-DB6F354E3D54</title>
    <desc>Created with sketchtool.</desc>
    <defs></defs>
    <g id="z" stroke="none" stroke-width="1" fill="none" fill-rule="evenodd">
        <g id="22-3Waiting-for-bids-hover-State" transform="translate(-1032.000000, -855.000000)" fill="#00A3E7">
            <g id="3" transform="translate(262.000000, 798.000000)">
                <g id="1" transform="translate(79.942982, 42.000000)">
                    <g id="arrow" transform="translate(696.869222, 37.495311) rotate(5.000000) translate(-696.869222, -37.495311) translate(688.869222, 14.995311)">
                        <path d="M6.43542775,43.5685841 C6.46438536,43.5985841 6.49334296,43.6285841 6.52529618,43.6585841 C6.60301982,43.7392653 6.69058183,43.8098206 6.7859146,43.8685841 C6.8179722,43.8959931 6.85316765,43.919491 6.89076109,43.9385841 C6.91073185,43.9485841 6.92471138,43.9585841 6.94468214,43.9685841 C7.05962459,44.0271492 7.18289304,44.0676242 7.31014705,44.0885841 C7.48131962,44.1067035 7.61674783,44.0999222 7.7475067,44.0685841 C7.76580907,44.0736041 7.78512246,44.0736041 7.80342483,44.0685841 L14.5375652,42.6385841 C14.8646858,42.5847981 15.1529749,42.3928793 15.3291159,42.111636 C15.5052569,41.8303926 15.5522766,41.4869256 15.4582172,41.1685841 C14.9948956,40.3485841 14.4257289,40.5685841 13.7766792,40.7185841 L8.96073039,41.9185841 C10.8048863,38.9884261 12.3192511,35.8626976 13.4761193,32.5985841 C17.5132085,19.0585841 13.7348904,5.63 1.58967251,1.1 C1.04760438,0.856106993 0.409354282,1.06916852 0.121821637,1.59 C0.0940447081,1.64446799 0.0713159345,1.70137311 0.0539210526,1.76 C-0.0977351657,2.42719609 0.279280223,3.101115 0.926643275,3.32 C12.0223977,7.06 15.491169,19.4285841 11.8095593,31.7785841 C10.8084051,35.0079996 9.38012982,38.0886855 7.56277717,40.9385841 L6.40547161,34.4685841 C6.36952425,33.8085841 6.1398605,32.9785841 5.43189705,33.1285841 C5.15995421,33.1244332 4.89969443,33.2391177 4.71902827,33.4427128 C4.5383621,33.6463078 4.45521186,33.9186164 4.49127425,34.1885841 L6.12687951,42.8285841 C6.13717789,42.9485944 6.16475684,43.0664818 6.20875963,43.1785841 C6.26360897,43.3265399 6.34013086,43.4548258 6.43542775,43.5685841 Z" id="Forma_1_copy_2"></path>
                    </g>
                </g>
            </g>
        </g>
    </g>
</svg>