<?xml version="1.0" encoding="UTF-8"?>
<svg width="841px" height="412px" viewBox="0 0 841 412" version="1.1" xmlns="http://www.w3.org/2000/svg" xmlns:xlink="http://www.w3.org/1999/xlink">
    <!-- Generator: sketchtool 49.1 (51147) - http://www.bohemiancoding.com/sketch -->
    <title>950D3BD5-D1F6-492C-BC0B-E0D67601992B</title>
    <desc>Created with sketchtool.</desc>
    <defs>
        <rect id="path-1" x="0" y="0" width="841" height="412"></rect>
    </defs>
    <g id="z" stroke="none" stroke-width="1" fill="none" fill-rule="evenodd">
        <g id="22-1-Waiting-for-bids-" transform="translate(-264.000000, -1125.000000)">
            <g id="3" transform="translate(262.000000, 798.000000)">
                <g id="Group-22" transform="translate(2.000000, 327.000000)">
                    <g id="1">
                        <g id="bg-copy">
                            <mask id="mask-2" fill="white">
                                <use xlink:href="#path-1"></use>
                            </mask>
                            <use id="Mask" fill="#E5F6FD" xlink:href="#path-1"></use>
                            <g id="icon" opacity="0.140000001" mask="url(#mask-2)">
                                <g transform="translate(-1.000000, 16.000000)">
                                    <g id="Group-5" transform="translate(1.000000, 116.000000)">
                                        <path d="M45.7679643,22.3722262 C44.6950991,22.3722262 43.6969158,22.7023515 42.8658308,23.2671778 L41.775011,23.2671778 L39.907961,20.7388277 C39.4216469,20.0803671 38.6476197,19.6873715 37.8371328,19.6873715 L35.9596186,19.6873715 C35.9975104,19.5254971 36.0196506,19.35747 36.0196506,19.1839612 C36.0196506,19.0104525 35.9975104,18.8424253 35.9596186,18.680551 L36.0747258,18.680551 C37.5020552,18.680551 38.6632611,17.5012285 38.6632611,16.0516307 L38.6632611,13.9799297 C38.6632611,12.1818601 37.3363889,10.6762159 35.5767357,10.4776485 L25.0022936,9.28434246 C24.0228359,9.17370407 23.0396331,9.49331366 22.30515,10.1609475 C21.5706669,10.8285814 21.1494516,11.7856203 21.1494516,12.7867355 L21.1494516,16.0517426 C21.1494516,17.5013404 22.3106575,18.6806628 23.7379869,18.6806628 L23.8530941,18.6806628 C23.8152024,18.8425372 23.7930621,19.0105644 23.7930621,19.1840731 C23.7930621,19.3575818 23.8152024,19.525609 23.8530941,19.6874834 L21.9755799,19.6874834 C21.3675495,19.6874834 20.780007,19.9087602 20.3191376,20.297281 L4.58480846,0.953685677 C3.67650795,-0.16377324 2.0417653,-0.322291539 0.940371066,0.600515409 C0.407242947,1.04765559 0.077562686,1.67882019 0.0119130249,2.37800112 C-0.0536264856,3.07707017 0.152795435,3.76025383 0.593176886,4.3014758 L15.4521405,22.5693393 C15.0039384,22.4420325 14.5321641,22.37245 14.0445281,22.37245 C11.1595779,22.37245 8.81238226,24.7562654 8.81238226,27.686225 C8.81238226,30.6161846 11.1595779,33 14.0445281,33 C15.1173933,33 16.1155766,32.6698747 16.9466617,32.1050484 L42.8657206,32.1050484 C43.6968057,32.6698747 44.6949889,33 45.7678542,33 C48.6528043,33 51,30.6161846 51,27.686225 C51,24.7562654 48.6529145,22.3722262 45.7679643,22.3722262 Z M18.535802,24.9637823 C18.5424111,24.9575176 18.5494607,24.9515886 18.5557393,24.945212 L41.2872648,24.945212 C40.8105337,25.74597 40.5358185,26.6839911 40.5358185,27.6860013 C40.5358185,28.6880114 40.8106439,29.6260325 41.2872648,30.4267905 L18.5253377,30.4267905 C19.0020688,29.6260325 19.276784,28.6880114 19.276784,27.6860013 C19.276784,26.6915982 19.0058139,25.7605129 18.535802,24.9637823 Z M22.801598,16.0516307 L22.801598,12.7867355 C22.801598,12.2546868 23.0166117,11.7661551 23.4069848,11.4113068 C23.7451467,11.1038909 24.1669127,10.9404504 24.6122509,10.9404504 C24.6809848,10.9404504 24.7501593,10.9443658 24.8197744,10.9521966 L35.3942164,12.1455027 C36.3159553,12.2495408 37.0110045,13.0382169 37.0110045,13.9800415 L37.0110045,16.0517426 C37.0110045,16.5760723 36.5910009,17.0026286 36.0747258,17.0026286 L23.7378768,17.0026286 C23.2216017,17.0025168 22.801598,16.5759605 22.801598,16.0516307 Z M25.4452085,19.1839612 C25.4452085,18.9064144 25.6676023,18.680551 25.9408855,18.680551 L33.871717,18.680551 C34.1450003,18.680551 34.367394,18.9064144 34.367394,19.1839612 C34.367394,19.4615081 34.1450003,19.6873715 33.871717,19.6873715 L25.9408855,19.6873715 C25.6674921,19.6873715 25.4452085,19.46162 25.4452085,19.1839612 Z M37.8371328,21.3654057 C38.1302431,21.3654057 38.4103557,21.5075911 38.5861558,21.7457601 L39.7096903,23.2671778 L21.9162088,23.2671778 C21.9277746,22.6721469 21.7425016,22.0774516 21.3692017,21.5927234 C21.5369609,21.4483006 21.7521948,21.3654057 21.9754698,21.3654057 L37.8371328,21.3654057 Z M1.65678951,2.53696689 C1.68047186,2.28425494 1.79965463,2.05604229 1.99208745,1.89461539 C2.39083203,1.56079846 2.98211958,1.61785162 3.31080849,2.02214599 L20.0536751,22.6061442 C20.2068943,22.7944197 20.2786023,23.0323649 20.2656045,23.2672897 L18.1630529,23.2672897 L1.8670667,3.23267988 C1.70767902,3.03690922 1.63299702,2.78979071 1.65678951,2.53696689 Z M10.464749,27.6860013 C10.464749,25.6813097 12.0707424,24.0502605 14.0446382,24.0502605 C16.0185341,24.0502605 17.6245275,25.6813097 17.6245275,27.6860013 C17.6245275,29.6906928 16.0185341,31.321742 14.0446382,31.321742 C12.0707424,31.321742 10.464749,29.6908047 10.464749,27.6860013 Z M45.7679643,31.321742 C43.7940685,31.321742 42.1880751,29.6906928 42.1880751,27.6860013 C42.1880751,25.6813097 43.7940685,24.0502605 45.7679643,24.0502605 C47.7418602,24.0502605 49.3478536,25.6813097 49.3478536,27.6860013 C49.3478536,29.6906928 47.7418602,31.321742 45.7679643,31.321742 Z" id="Shape" fill="#00A3E7" fill-rule="nonzero"></path>
                                    </g>
                                    <g id="leaf" transform="translate(164.773363, 38.301688) rotate(35.000000) translate(-164.773363, -38.301688) translate(152.773363, 12.801688)">
                                        <path d="M23.1030326,24.5456932 C23.1030326,19.917716 22.0254362,14.9971897 20.068786,10.6905952 C18.0405573,6.2265491 15.2577635,2.71596026 12.0212613,0.538202949 C11.7665079,0.366820382 11.4395573,0.366820382 11.184907,0.538202949 C7.9484048,2.71596026 5.16561108,6.2265491 3.13748552,10.6905952 C1.18062901,14.9971897 0.103032602,19.917716 0.103032602,24.5456932 C0.103032602,33.0927913 3.71310435,39.9213121 10.82949,44.8516657 L10.82949,49.5997295 C10.82949,50.0470304 11.1758308,50.409666 11.6030326,50.409666 C12.0302344,50.409666 12.3765752,50.0470304 12.3765752,49.5997295 L12.3765752,44.8516657 C19.4928577,39.9214201 23.1030326,33.0927913 23.1030326,24.5456932 Z M1.6501178,24.5456932 C1.6501178,23.2850001 1.73489807,22.0010887 1.89930166,20.7143695 L10.82949,30.0647087 L10.82949,35.5492748 L1.68900121,25.9786329 C1.66414471,25.5063859 1.6501178,25.0291713 1.6501178,24.5456932 Z M3.33582184,14.4430851 L10.82949,22.2893181 L10.82949,27.7738842 L2.21160659,18.7505435 C2.48863798,17.2951415 2.86571422,15.8495668 3.33582184,14.4430851 Z M17.9280326,9.86748372 C17.9237008,9.87180338 17.9190595,9.87558309 17.9147277,9.88001074 L12.3765752,15.6788322 L12.3765752,10.1942661 L15.8642209,6.54253233 C16.6092972,7.56218841 17.3017725,8.6761211 17.9280326,9.86748372 Z M21.4223824,21.7582157 L12.3765752,31.2296134 L12.3765752,25.7450472 L20.6357411,17.097301 C21.0115797,18.6392042 21.2763375,20.2047575 21.4223824,21.7582157 Z M12.3765752,33.5204378 L21.5483151,23.9172905 C21.5529564,24.127226 21.5559474,24.3368376 21.5559474,24.5456932 C21.5559474,26.4529318 21.3610147,28.273777 20.976925,30.0001297 L12.3765752,39.0050039 L12.3765752,33.5204378 Z M20.1492344,15.3176005 C20.1436649,15.3231081 20.1376828,15.3279677 20.1322165,15.3336913 L12.3765752,23.4542228 L12.3765752,17.9696567 L18.6691896,11.3809851 C18.6700147,11.3828209 18.6708398,11.3845488 18.6716649,11.3863847 C19.2457366,12.6499936 19.7399788,13.9688943 20.1492344,15.3176005 Z M14.8781088,5.28421496 L12.3765752,7.90344166 L12.3765752,2.79047442 C13.2484093,3.50689026 14.0867232,4.34436462 14.8781088,5.28421496 Z M10.82949,2.79047442 L10.82949,12.2231031 L6.53075906,7.72212387 C7.80246309,5.75689391 9.26198327,4.07859745 10.82949,2.79047442 Z M5.68264695,9.12493392 L10.82949,14.5139275 L10.82949,19.9984937 L3.94073215,12.785631 C4.12813574,12.3128441 4.32575009,11.8457807 4.53450345,11.3863847 C4.89002363,10.603662 5.27421646,9.84880118 5.68264695,9.12493392 Z M4.49881736,35.9075907 C3.22288462,33.6855569 2.37332857,31.2207581 1.95468731,28.5477516 L10.82949,37.8400992 L10.82949,42.8868677 C8.12827924,40.8660221 6.00124336,38.5241176 4.49881736,35.9075907 Z M12.3765752,42.8868677 L12.3765752,41.2958284 L19.9305797,33.3865283 C19.5790819,34.257804 19.1715797,35.0989501 18.7072478,35.9075907 C17.2048218,38.5241176 15.077786,40.86613 12.3765752,42.8868677 Z" id="Shape" fill="#00A3E7" fill-rule="nonzero"></path>
                                    </g>
                                    <g id="leaf" transform="translate(707.777931, 207.033864) rotate(62.000000) translate(-707.777931, -207.033864) translate(696.777931, 184.033864)">
                                        <path d="M21.4982611,22.4757368 C21.4982611,18.351001 20.5276199,13.9655276 18.7651742,10.1272278 C16.9382544,6.14859745 14.4316628,3.01974641 11.516395,1.07879618 C11.2869268,0.926049578 10.9924271,0.926049578 10.7630518,1.07879618 C7.84778394,3.01974641 5.34119238,6.14859745 3.51436549,10.1272278 C1.75173395,13.9655276 0.781092816,18.351001 0.781092816,22.4757368 C0.781092816,30.0934323 4.03285211,36.1794268 10.4429112,40.5736588 L10.4429112,44.8054231 C10.4429112,45.204085 10.7548764,45.5272879 11.1396769,45.5272879 C11.5244774,45.5272879 11.8364427,45.204085 11.8364427,44.8054231 L11.8364427,40.5736588 C18.2464089,36.179523 21.4982611,30.0934323 21.4982611,22.4757368 Z M2.16223737,22.993301 C2.16223737,21.8938386 2.2387745,20.7741274 2.38719322,19.6519676 L10.4491047,27.8064861 L10.4491047,32.5896278 L2.19734016,24.2429811 C2.17490044,23.8311301 2.16223737,23.4149468 2.16223737,22.993301 Z M3.24327109,13.9018964 L10.4491047,20.6706427 L10.4491047,25.4020388 L2.16223737,17.6178315 C2.42862788,16.3622932 2.79122047,15.1152325 3.24327109,13.9018964 Z M17.3548274,9.85322154 C17.3505165,9.85729951 17.3458978,9.86086773 17.3415869,9.86504765 L11.8302492,15.3394142 L11.8302492,10.1617198 L15.3010084,6.71430742 C16.0424771,7.67691182 16.7315996,8.72851789 17.3548274,9.85322154 Z M20.1171165,19.606326 L11.8302492,28.2770744 L11.8302492,23.2561372 L19.3964742,15.3394142 C19.74078,16.7509751 19.9833248,18.1841868 20.1171165,19.606326 Z M11.8302492,30.7616676 L20.1102263,22.5270032 C20.1144163,22.7070222 20.1171165,22.8867633 20.1171165,23.0658563 C20.1171165,24.7013065 19.941137,26.2626748 19.5943921,27.743016 L11.8302492,35.4646633 L11.8302492,30.7616676 Z M18.735972,14.3078931 C18.7310237,14.3124835 18.7257088,14.3165338 18.7208521,14.3213042 L11.8302492,21.0894854 L11.8302492,16.5182899 L17.4210064,11.0268608 C17.4217395,11.0283909 17.4224725,11.029831 17.4232056,11.0313612 C17.9332473,12.0845354 18.3723634,13.1837933 18.735972,14.3078931 Z M14.5925383,4.50510981 L11.8302492,6.71430742 L11.8302492,2.40175403 C12.7929617,3.00601794 13.71866,3.71238915 14.5925383,4.50510981 Z M10.4491047,2.40175403 L10.4491047,11.0268608 L6.30567101,6.91120782 C7.53143307,5.11422006 8.93822617,3.57960159 10.4491047,2.40175403 Z M6.32149015,8.15182521 L10.4491047,13.1389151 L10.4491047,18.2144498 L4.92452646,11.5395125 C5.07481855,11.1019854 5.23329936,10.6697549 5.40071333,10.2446201 C5.6858299,9.5202718 5.99394108,8.82170745 6.32149015,8.15182521 Z M4.53782461,32.0425525 C3.3464195,30.0376926 2.55314459,27.8137948 2.16223737,25.4020388 L10.4491047,33.7861843 L10.4491047,38.3396989 C7.92684294,36.5163638 5.94071833,34.4033491 4.53782461,32.0425525 Z M11.8302492,38.3396989 L11.8302492,36.8952365 L18.735972,29.7145922 C18.4146396,30.5056003 18.042109,31.2692546 17.617626,32.003398 C16.2441376,34.3788736 14.2996431,36.5051247 11.8302492,38.3396989 Z" id="Shape" fill="#00A3E7" fill-rule="nonzero"></path>
                                    </g>
                                    <g id="pruning-shears" transform="translate(624.000000, 66.500000) rotate(29.000000) translate(-624.000000, -66.500000) translate(612.000000, 44.000000)">
                                        <path d="M23.09701,40.5477228 L17.9821375,24.4280073 C17.7565322,23.712717 17.3007731,23.1459485 16.7310287,22.787149 L15.1189514,17.6730541 C16.0883265,16.6996783 16.6945498,15.3255629 16.6945498,13.8037914 L16.6945498,0.721558697 C16.6945498,0.506952365 16.6042167,0.303408214 16.4480214,0.166429542 C16.2918261,0.0294508704 16.0859613,-0.0273991262 15.8865553,0.0125209222 C15.8188737,0.0258917336 14.211163,0.359681054 12.6265586,1.98293603 C10.7223771,3.93353541 9.93021134,6.62039515 9.64602143,9.05320947 C8.80200287,5.14922112 8.69038282,0.763210218 8.68901827,0.704243977 C8.68192262,0.392771407 8.48651932,0.121218885 8.20451269,0.0310861495 C7.92259702,-0.0594313578 7.61757501,0.0522485848 7.44837103,0.30725593 C7.33056503,0.484828001 4.59801174,4.73780414 6.59689294,13.1222648 L6.59689294,13.8036952 C6.59689294,15.3073824 7.18874299,16.6668765 8.1380137,17.6381361 L6.51511102,22.786668 C5.94545762,23.1453713 5.48969851,23.7119474 5.26427515,24.4266606 L0.148492897,40.5489733 C-0.0935779575,41.316785 -0.0382682696,42.1383684 0.304051394,42.8624123 C0.646371058,43.5864561 1.23476425,44.126002 1.96088584,44.3819713 C2.25480953,44.4855711 2.55983154,44.5380924 2.86740071,44.5380924 C4.10213491,44.5380924 5.19459222,43.7052544 5.58521689,42.4668671 L10.0560227,28.3769177 L13.1897532,28.3769177 L17.6601951,42.4656166 C18.0512746,43.7052544 19.1436409,44.5380924 20.3783751,44.5380924 C20.6859443,44.5380924 20.9909663,44.4855711 21.28489,44.3819713 C22.0110116,44.126002 22.5994048,43.5863599 22.9417244,42.8624123 C23.2840441,42.1384646 23.3394448,41.3168811 23.09701,40.5477228 Z M15.1577956,22.3593792 C14.8916177,22.3694795 14.6226198,22.4184417 14.3573516,22.5115564 C14.1164633,22.5964947 13.8911309,22.7132729 13.6844474,22.8570812 L12.489558,19.0664081 C13.0097238,18.9733896 13.5028715,18.7961061 13.9563563,18.5481208 L15.1577956,22.3593792 Z M11.6457214,12.9860557 C12.0720972,12.9860557 12.4189654,13.3528392 12.4189654,13.8036952 C12.4189654,14.2545513 12.0720972,14.6213348 11.6457214,14.6213348 C11.2193455,14.6213348 10.8724774,14.2545513 10.8724774,13.8036952 C10.8724774,13.3528392 11.2193455,12.9860557 11.6457214,12.9860557 Z M7.53915897,4.11841814 C7.57636565,4.51752243 7.61994023,4.93980921 7.67079239,5.37854497 C8.0021047,8.23489657 8.49716279,10.5592053 9.14523223,12.3128017 L7.81525256,12.3128017 C7.02181326,8.71778487 7.17218647,5.98244392 7.53915897,4.11841814 Z M7.96144116,13.8036952 L7.96144116,13.7555988 L9.50911176,13.7555988 C9.50874788,13.771663 9.50792915,13.7875348 9.50792915,13.8036952 C9.50792915,15.0501627 10.4669336,16.0642281 11.6457214,16.0642281 C12.8245091,16.0642281 13.7835136,15.0501627 13.7835136,13.8036952 C13.7835136,12.5572278 12.8245091,11.5431624 11.6457214,11.5431624 C11.3730846,11.5431624 11.1124559,11.5979923 10.8724774,11.6967824 L10.8724774,11.4950659 C10.8724774,7.80597249 11.7866337,4.89652241 13.5161531,3.08126642 C14.1724098,2.39242916 14.8351254,1.97812639 15.3300016,1.73687463 L15.3300016,13.803599 C15.3300016,15.9517786 13.6772608,17.699411 11.6457214,17.699411 C9.61418197,17.699411 7.96144116,15.9518748 7.96144116,13.8036952 Z M10.758947,19.0582317 L9.56151041,22.8570812 C9.35473587,22.7132729 9.12922153,22.5963985 8.88806037,22.511364 C8.62306511,22.4182493 8.35424911,22.3692871 8.08825318,22.3590907 L9.29624223,18.5268622 C9.74790769,18.7791761 10.2397818,18.9604997 10.758947,19.0582317 Z M4.2912613,42.0090852 C4.08630615,42.6586757 3.51419657,43.0951991 2.86749168,43.0951991 C2.70683887,43.0951991 2.54700479,43.0675917 2.39244696,43.0130503 C1.60719495,42.7363034 1.18136493,41.8356494 1.44263043,41.0066591 L6.55832171,24.8844425 C6.76782535,24.2203268 7.35558175,23.7992906 7.98454751,23.7992906 C8.14128862,23.7992906 8.30057688,23.8253588 8.45713605,23.8804774 C8.83748112,24.0145703 9.14568708,24.297185 9.32507969,24.6764735 C9.50438132,25.0556659 9.53330974,25.4860329 9.40695258,25.8868686 L4.2912613,42.0090852 Z M10.5139651,26.9340244 L10.7009991,26.3445544 C10.9307891,25.6156047 10.8921269,24.8384623 10.5947463,24.142122 L11.6229789,20.8802212 L12.6512115,24.142122 C12.3539219,24.8384623 12.3152597,25.6157009 12.5454135,26.3459011 L12.7319927,26.9340244 L10.5139651,26.9340244 Z M20.8535108,43.0130503 C20.698953,43.0674955 20.5391189,43.0951991 20.3784661,43.0951991 C19.7318522,43.0951991 19.1596516,42.6586757 18.9543326,42.0078347 L13.8394601,25.8882153 C13.712648,25.4860329 13.7415765,25.0557621 13.9208781,24.6764735 C14.1002707,24.297185 14.4084767,24.0144741 14.7882759,23.8806698 C14.945108,23.8255512 15.1043963,23.7993868 15.2613193,23.7993868 C15.890467,23.7993868 16.4782234,24.2206154 16.6880909,24.885693 L21.8029635,41.0053124 C22.0646838,41.8356494 21.6387628,42.7363034 20.8535108,43.0130503 Z" id="Shape" fill="#00A3E7" fill-rule="nonzero"></path>
                                    </g>
                                    <g id="tree" transform="translate(197.000000, 132.000000)">
                                        <path d="M20.6437155,9.18268467 C18.2077657,3.26109287 15.1380753,0 12,0 C8.86192469,0 5.79223431,3.26109287 3.35628452,9.18268467 C1.28605858,14.2151857 0,20.4088704 0,25.3466523 C0,31.6276479 4.3467113,36.9180605 10.1850377,37.8490605 L9.68083682,47.412527 L8.78661088,47.412527 C8.37067782,47.412527 8.0334728,47.7679093 8.0334728,48.2062635 C8.0334728,48.6446177 8.37067782,49 8.78661088,49 L15.2133891,49 C15.6293222,49 15.9665272,48.6446177 15.9665272,48.2062635 C15.9665272,47.7679093 15.6293222,47.412527 15.2133891,47.412527 L14.3191632,47.412527 L13.8150628,37.8494838 C16.5376067,37.4135637 19.0368201,35.9998661 20.9001841,33.8297905 C22.899113,31.5017084 24,28.4890022 24,25.3466523 C24,20.4088704 22.7139414,14.2151857 20.6437155,9.18268467 Z M11.1894226,47.412527 L11.9983933,32.0668488 C11.9988954,32.0668488 11.9994979,32.0669546 12,32.0669546 C12.0005021,32.0669546 12.0011046,32.0668488 12.0016067,32.0668488 L12.8105774,47.412527 L11.1894226,47.412527 Z M19.7832301,32.7645961 C18.1861757,34.6245853 16.0551967,35.8469395 13.7309121,36.2539676 L13.4471297,30.8705292 L17.3526025,26.7545292 C17.646728,26.4445486 17.646728,25.9419546 17.3526025,25.6320799 C17.058477,25.3220994 16.58159,25.3220994 16.2875649,25.6320799 L13.3350628,28.7437387 L13.1511967,25.2559546 L14.9425607,23.3680259 C15.2366862,23.0580454 15.2366862,22.5554514 14.9425607,22.2455767 C14.6484351,21.9355961 14.1715481,21.9355961 13.877523,22.2455767 L13.0391297,23.12927 L12.7520335,17.6829676 C12.729841,17.2622873 12.3997657,16.933257 12.0001004,16.933257 C11.6004351,16.933257 11.2702594,17.2622873 11.2481674,17.6829676 L10.7919665,26.3376587 L7.71263598,23.0923348 C7.41851046,22.7823542 6.94162343,22.7823542 6.64759833,23.0923348 C6.3534728,23.4023153 6.3534728,23.9049093 6.64759833,24.214784 L10.6798996,28.4644492 L10.2691883,36.2562959 C5.23631799,35.3796933 1.50627615,30.7881922 1.50627615,25.3466523 C1.50627615,20.6837149 2.77486192,14.5868661 4.73824268,9.81407559 C6.88900418,4.58599784 9.53573222,1.587473 12,1.587473 C14.4642678,1.587473 17.1109958,4.58599784 19.2617573,9.81407559 C21.2251381,14.5868661 22.4937238,20.6837149 22.4937238,25.3466523 C22.4937238,28.094568 21.531113,30.7289266 19.7832301,32.7645961 Z" id="Shape" fill="#00A3E7" fill-rule="nonzero"></path>
                                    </g>
                                    <g id="tree" transform="translate(467.000000, 0.000000)">
                                        <path d="M18.063251,8.0582743 C15.931795,2.86177538 13.2458159,0 10.5,0 C7.7541841,0 5.06820502,2.86177538 2.93674895,8.0582743 C1.12530126,12.4745508 0,17.9098251 0,22.2429806 C0,27.7548747 3.80337238,32.3974816 8.91190795,33.2144816 L8.47073222,41.6069114 L7.68828452,41.6069114 C7.3243431,41.6069114 7.0292887,41.9187775 7.0292887,42.3034557 C7.0292887,42.6881339 7.3243431,43 7.68828452,43 L13.3117155,43 C13.6756569,43 13.9707113,42.6881339 13.9707113,42.3034557 C13.9707113,41.9187775 13.6756569,41.6069114 13.3117155,41.6069114 L12.5292678,41.6069114 L12.0881799,33.2148531 C14.4704059,32.832311 16.6572176,31.5917192 18.2876611,29.6873672 C20.0367238,27.6443564 21,25.0005529 21,22.2429806 C21,17.9098251 19.8746987,12.4745508 18.063251,8.0582743 Z M9.79074477,41.6069114 L10.4985941,28.1402959 C10.4990335,28.1402959 10.4995607,28.1403888 10.5,28.1403888 C10.5004393,28.1403888 10.5009665,28.1402959 10.5014059,28.1402959 L11.2092552,41.6069114 L9.79074477,41.6069114 Z M17.3103264,28.7526048 C15.9129038,30.3848402 14.0482971,31.4575184 12.0145481,31.8147063 L11.7662385,27.0904644 L15.1835272,23.4784644 C15.440887,23.2064406 15.440887,22.7653888 15.1835272,22.4934579 C14.9261674,22.2214341 14.5088912,22.2214341 14.2516192,22.4934579 L11.6681799,25.2240972 L11.5072971,22.1633888 L13.0747406,20.506635 C13.3321004,20.2346112 13.3321004,19.7935594 13.0747406,19.5216285 C12.8173808,19.2496048 12.4001046,19.2496048 12.1428326,19.5216285 L11.4092385,20.2971145 L11.1580293,15.5177063 C11.1386109,15.1485378 10.849795,14.859797 10.5000879,14.859797 C10.1503808,14.859797 9.86147699,15.1485378 9.84214644,15.5177063 L9.44297071,23.1126393 L6.74855649,20.2647019 C6.49119665,19.9926782 6.0739205,19.9926782 5.81664854,20.2647019 C5.5592887,20.5367257 5.5592887,20.9777775 5.81664854,21.2497084 L9.34491213,24.9790065 L8.98553975,31.8167495 C4.58177824,31.047486 1.31799163,27.0182095 1.31799163,22.2429806 C1.31799163,18.1510151 2.42800418,12.8007192 4.14596234,8.61235205 C6.02787866,4.02444708 8.34376569,1.39308855 10.5,1.39308855 C12.6562343,1.39308855 14.9721213,4.02444708 16.8540377,8.61235205 C18.5719958,12.8007192 19.6820084,18.1510151 19.6820084,22.2429806 C19.6820084,24.6544168 18.8397238,26.9662009 17.3103264,28.7526048 Z" id="Shape" fill="#00A3E7" fill-rule="nonzero"></path>
                                    </g>
                                    <g id="calendar" transform="translate(570.000000, 168.000000)">
                                        <path d="M25.3124966,1.93341481 L21.562537,1.93341481 L21.562537,0.966707404 C21.562537,0.386749624 21.1875626,0 20.6249933,0 C20.0624239,0 19.6874495,0.386638521 19.6874495,0.966707404 L19.6874495,1.93341481 L10.3125505,1.93341481 L10.3125505,0.966707404 C10.3125505,0.386749624 9.9375761,0 9.37500673,0 C8.81254512,0 8.43746296,0.386638521 8.43746296,0.966707404 L8.43746296,1.93341481 L4.68750337,1.93341481 C2.062467,1.93341481 0,4.06003778 0,6.76672963 L0,24.1666852 C0,26.873377 2.062467,29 4.68750337,29 L25.3124966,29 C27.937533,29 30,26.873377 30,24.1666852 L30,6.76672963 C30,4.06003778 27.937533,1.93341481 25.3124966,1.93341481 Z M1.8749798,6.76672963 C1.8749798,5.22006444 3.18749798,3.86671851 4.68750337,3.86671851 L8.43746296,3.86671851 L8.43746296,4.83342592 C8.43746296,5.4133837 8.81243737,5.80013332 9.37500673,5.80013332 C9.93746835,5.80013332 10.3125505,5.4134948 10.3125505,4.83342592 L10.3125505,3.86671851 L19.6875572,3.86671851 L19.6875572,4.83342592 C19.6875572,5.4133837 20.0625317,5.80013332 20.625101,5.80013332 C21.1876704,5.80013332 21.5626448,5.4134948 21.5626448,4.83342592 L21.5626448,3.86671851 L25.3126044,3.86671851 C26.8126098,3.86671851 28.125128,5.22006444 28.125128,6.76672963 L28.125128,9.66674074 L1.8749798,9.66674074 L1.8749798,6.76672963 Z M28.1250202,24.1666852 C28.1250202,25.7133504 26.812502,27.0666963 25.3124966,27.0666963 L4.68750337,27.0666963 C3.18749798,27.0666963 1.8749798,25.7133504 1.8749798,24.1666852 L1.8749798,11.6000444 L28.1250202,11.6000444 L28.1250202,24.1666852 Z" id="Shape" fill="#00A3E7" fill-rule="nonzero"></path>
                                        <path d="M4.45652174,25.0454545 C3.90220577,25.0454545 3.5325556,24.8609197 3.16301162,24.49185 C2.79346764,24.1227803 2.60869565,23.5690697 2.60869565,23.2 C2.60869565,22.6462894 2.79346764,22.2772197 3.16301162,21.90815 C3.90220577,21.1700106 5.0109439,21.1700106 5.75003186,21.90815 C6.11957584,22.2772197 6.30434783,22.8309303 6.30434783,23.2 C6.30434783,23.5690697 6.11957584,24.1227803 5.75003186,24.49185 C5.38048788,24.8609197 5.01083771,25.0454545 4.45652174,25.0454545 Z M4.45652174,19.5090909 C3.90220577,19.5090909 3.5325556,19.3245561 3.16301162,18.9554864 C2.79346764,18.5864167 2.60869565,18.217347 2.60869565,17.6636364 C2.60869565,17.1099258 2.79346764,16.7408561 3.16301162,16.3717864 C3.90220577,15.633647 5.0109439,15.633647 5.75003186,16.3717864 C6.11957584,16.7408561 6.30434783,17.2945667 6.30434783,17.6636364 C6.30434783,18.0327061 6.11957584,18.5864167 5.75003186,18.9554864 C5.38048788,19.3245561 5.01083771,19.5090909 4.45652174,19.5090909 Z M10,25.0454545 C9.44568403,25.0454545 9.07603386,24.8609197 8.70648988,24.49185 C8.3369459,24.1227803 8.15217391,23.5690697 8.15217391,23.2 C8.15217391,22.8309303 8.3369459,22.2772197 8.70648988,21.90815 C9.44568403,21.1700106 10.5544222,21.1700106 11.2935101,21.90815 C11.6630541,22.2772197 11.8478261,22.8309303 11.8478261,23.2 C11.8478261,23.5690697 11.6630541,24.1227803 11.2935101,24.49185 C10.9239661,24.8609197 10.554316,25.0454545 10,25.0454545 Z M10,19.5090909 C9.44568403,19.5090909 9.07603386,19.3245561 8.70648988,18.9554864 C8.3369459,18.5864167 8.15217391,18.0327061 8.15217391,17.6636364 C8.15217391,17.2945667 8.3369459,16.7408561 8.70648988,16.3717864 C9.44568403,15.633647 10.5544222,15.633647 11.2935101,16.3717864 C11.6630541,16.7408561 11.8478261,17.2945667 11.8478261,17.6636364 C11.8478261,18.0327061 11.6630541,18.5864167 11.2935101,18.9554864 C10.9239661,19.3245561 10.554316,19.5090909 10,19.5090909 Z M17.3913043,25.0454545 C16.8369884,25.0454545 16.4673382,24.8609197 16.0977942,24.49185 C15.7282503,24.1227803 15.5434783,23.5690697 15.5434783,23.2 C15.5434783,22.8309303 15.7282503,22.2772197 16.0977942,21.90815 C16.8369884,21.1700106 17.9457265,21.1700106 18.6848145,21.90815 C19.0543584,22.2772197 19.2391304,22.6462894 19.2391304,23.2 C19.2391304,23.7537106 19.0543584,24.1227803 18.6848145,24.49185 C18.3152705,24.8609197 17.9456203,25.0454545 17.3913043,25.0454545 Z M17.3913043,19.5090909 C16.8369884,19.5090909 16.4673382,19.3245561 16.0977942,18.9554864 C15.7282503,18.5864167 15.5434783,18.0327061 15.5434783,17.6636364 C15.5434783,17.2945667 15.7282503,16.7408561 16.0977942,16.3717864 C16.8369884,15.633647 17.9457265,15.633647 18.6848145,16.3717864 C19.0543584,16.7408561 19.2391304,17.2945667 19.2391304,17.6636364 C19.2391304,18.217347 19.0543584,18.5864167 18.6848145,18.9554864 C18.3152705,19.3245561 17.9456203,19.5090909 17.3913043,19.5090909 Z M22.9347826,25.0454545 C22.3804666,25.0454545 22.0108165,24.8609197 21.6412725,24.49185 C21.2717285,24.1227803 21.0869565,23.5690697 21.0869565,23.2 C21.0869565,22.6462894 21.2717285,22.2772197 21.6412725,21.90815 C22.3804666,21.1700106 23.4892048,21.1700106 24.2282927,21.90815 C24.5978367,22.2772197 24.7826087,22.8309303 24.7826087,23.2 C24.7826087,23.5690697 24.5978367,24.1227803 24.2282927,24.49185 C23.8587487,24.8609197 23.4890986,25.0454545 22.9347826,25.0454545 Z M22.9347826,19.5090909 C22.3804666,19.5090909 22.0108165,19.3245561 21.6412725,18.9554864 C21.2717285,18.5864167 21.0869565,18.0327061 21.0869565,17.6636364 C21.0869565,17.2945667 21.2717285,16.7408561 21.6412725,16.3717864 C22.3804666,15.633647 23.4892048,15.633647 24.2282927,16.3717864 C24.5978367,16.7408561 24.7826087,17.2945667 24.7826087,17.6636364 C24.7826087,18.217347 24.5978367,18.5864167 24.2282927,18.9554864 C23.8587487,19.3245561 23.4890986,19.5090909 22.9347826,19.5090909 Z" id="Combined-Shape" fill="#00A3E7" fill-rule="nonzero"></path>
                                    </g>
                                    <g id="grass" transform="translate(786.000000, 35.000000)">
                                        <path d="M35.1454141,25.3675933 C35.4497092,25.413568 35.7328521,25.2015442 35.7781995,24.894196 C36.3259308,21.1858423 37.2461638,18.5805072 37.9216247,17.048041 C38.0938112,16.6575933 37.975433,16.2088708 37.6338061,15.9570223 C37.2914369,15.7045737 36.8312833,15.7275986 36.5151133,16.013197 C34.256427,18.0529603 32.5128159,21.1931922 31.3306665,25.3468934 C31.9920259,17.6770624 33.827074,12.4477174 35.0131571,9.75673287 C35.217777,9.29241054 35.077059,8.7589386 34.6709364,8.45946532 C34.2634035,8.15901704 33.7160434,8.18654188 33.3397565,8.52643993 C31.4650016,10.2194802 29.8028823,12.4703673 28.3997848,15.2163265 C27.3285176,17.3130145 26.4045736,19.7034758 25.6505897,22.3250108 C26.0438726,18.3029338 26.708943,14.4490059 27.6425353,10.8017019 C27.7194997,10.5009536 27.5406335,10.1939804 27.243018,10.1162058 C26.9454026,10.0380563 26.641627,10.2191052 26.5646626,10.5199285 C24.0907432,20.185198 24.3050857,27.6563552 23.9739235,30.6676629 L21.9727006,30.6676629 C21.6027223,27.2370326 20.7684341,22.8965825 19.5816089,18.8734556 C21.8846035,11.2143495 25.1626042,5.42535773 29.3260295,1.6654793 C29.3477755,1.64575442 29.3987635,1.59947968 29.4774349,1.65760435 C29.5531376,1.71332903 29.5272354,1.77205369 29.5147667,1.80025353 C28.7072714,3.63226802 27.9624905,5.67503129 27.3009826,7.87176869 C27.2114753,8.16899198 27.3773532,8.48331518 27.6714804,8.57368966 C27.9656819,8.66413914 28.2766566,8.4965151 28.3661639,8.19929181 C29.0143126,6.04672916 29.7429881,4.04776563 30.5318546,2.2579009 C30.7737322,1.70905405 30.6136432,1.10245753 30.1335249,0.748459564 C29.6516995,0.393486601 29.029082,0.424686422 28.5840689,0.826534116 C26.2000279,2.97947176 24.0700363,5.81250551 22.2532459,9.2468108 C21.0259717,11.5666975 19.9353334,14.1723325 19.0007763,17.0104662 C18.1363555,14.3851063 17.1380448,11.9591702 16.0205395,9.77225778 C14.1434096,6.09855386 11.9214614,3.08882113 9.41637034,0.826534116 C8.97135727,0.424611423 8.34873975,0.393261603 7.86691439,0.748534564 C7.38679605,1.10245753 7.22670712,1.70905405 7.46865886,2.2579759 C9.01922809,5.77605571 11.3917653,12.5067421 12.3505176,22.3276357 C11.5964594,19.7050508 10.6722928,17.3136145 9.60058022,15.2162515 C8.19740858,12.4702923 6.53536343,10.2194052 4.66060857,8.52628993 C4.28432166,8.18661688 3.73696152,8.15909204 3.3294287,8.45939032 C2.92323182,8.7587886 2.78251387,9.29226054 2.98720801,9.75665787 C4.17329105,12.4476424 6.00833911,17.6769124 6.6696986,25.3468184 C5.48754913,21.1932672 3.74386383,18.0530353 1.48525179,16.013347 C1.16908173,15.7278236 0.709076553,15.7046487 0.366633205,15.9570223 C0.0249320409,16.2087958 -0.0935204044,16.6575183 0.0786661076,17.048116 C1.02198101,19.1884538 2.58724546,23.7641025 2.6688114,30.6678129 L1.63398531,30.6678129 C1.32657301,30.6678129 1.07727366,30.9195864 1.07727366,31.2303847 C1.07727366,31.5411829 1.32649879,31.7929564 1.63398531,31.7929564 C1.96462794,31.7929564 36.095186,31.7929564 36.4276099,31.7929564 C36.7350222,31.7929564 36.9843215,31.5411829 36.9843215,31.2303847 C36.9843215,30.9195864 36.7350964,30.6678129 36.4276099,30.6678129 L35.3314052,30.6678129 C35.3443934,29.592769 35.3941939,28.5241002 35.4806583,27.4836312 C35.506412,27.1740329 35.2789329,26.9019345 34.9724854,26.8759096 C34.6650731,26.8507098 34.3968481,27.0798335 34.3710943,27.3894317 C34.2820323,28.4609505 34.2305248,29.5613442 34.2174624,30.6678129 L31.3769787,30.6678129 C31.6379303,28.5939248 32.7579591,21.7169142 36.4763713,17.6312377 C35.8481132,19.2665283 35.1347267,21.6294647 34.6770223,24.728147 C34.6316749,25.0354202 34.8413416,25.3217686 35.1454141,25.3675933 Z M3.78282845,30.6678129 C3.71180151,24.5169482 2.48690229,20.1398983 1.52362266,17.6312377 C5.23847244,21.7137643 6.36080193,28.5933998 6.62286684,30.6678129 L3.78282845,30.6678129 Z M8.02930408,30.6677379 C7.94818345,20.1036735 5.59724382,12.9935643 4.10953751,9.54050911 C8.01587056,13.1838382 10.2082056,18.8144309 11.3634881,22.9283073 C12.1190306,25.6186169 12.5401454,28.0232531 12.7593121,29.5530943 C12.7656949,29.9214172 12.7702222,30.292815 12.7723745,30.6677379 L8.02930408,30.6677379 Z M14.02659,30.6677379 C13.9940081,30.3713396 13.9439108,29.955767 13.871251,29.4421699 C13.6161626,15.4949499 10.4217318,6.19282832 8.48582099,1.80025353 C8.47327809,1.77212869 8.44745012,1.71340403 8.52307859,1.65760435 C8.60152736,1.59970468 8.65258956,1.64575442 8.67440975,1.6654793 C15.910919,8.2007918 19.770643,20.9125439 20.8525977,30.6677379 L14.02659,30.6677379 Z M25.2278421,30.6678129 C25.2299944,30.295215 25.2345218,29.9238171 25.2409045,29.5534693 C26.2242973,22.6901087 28.8462081,14.2459821 33.8906791,9.54073411 C32.4035666,12.9922143 30.0521816,20.1030735 29.9709125,30.6678129 L25.2278421,30.6678129 Z" id="Shape" fill="#00A3E7" fill-rule="nonzero"></path>
                                    </g>
                                    <g id="Group-5-Copy" transform="translate(285.000000, 300.000000)">
                                        <path d="M45.7679643,22.3722262 C44.6950991,22.3722262 43.6969158,22.7023515 42.8658308,23.2671778 L41.775011,23.2671778 L39.907961,20.7388277 C39.4216469,20.0803671 38.6476197,19.6873715 37.8371328,19.6873715 L35.9596186,19.6873715 C35.9975104,19.5254971 36.0196506,19.35747 36.0196506,19.1839612 C36.0196506,19.0104525 35.9975104,18.8424253 35.9596186,18.680551 L36.0747258,18.680551 C37.5020552,18.680551 38.6632611,17.5012285 38.6632611,16.0516307 L38.6632611,13.9799297 C38.6632611,12.1818601 37.3363889,10.6762159 35.5767357,10.4776485 L25.0022936,9.28434246 C24.0228359,9.17370407 23.0396331,9.49331366 22.30515,10.1609475 C21.5706669,10.8285814 21.1494516,11.7856203 21.1494516,12.7867355 L21.1494516,16.0517426 C21.1494516,17.5013404 22.3106575,18.6806628 23.7379869,18.6806628 L23.8530941,18.6806628 C23.8152024,18.8425372 23.7930621,19.0105644 23.7930621,19.1840731 C23.7930621,19.3575818 23.8152024,19.525609 23.8530941,19.6874834 L21.9755799,19.6874834 C21.3675495,19.6874834 20.780007,19.9087602 20.3191376,20.297281 L4.58480846,0.953685677 C3.67650795,-0.16377324 2.0417653,-0.322291539 0.940371066,0.600515409 C0.407242947,1.04765559 0.077562686,1.67882019 0.0119130249,2.37800112 C-0.0536264856,3.07707017 0.152795435,3.76025383 0.593176886,4.3014758 L15.4521405,22.5693393 C15.0039384,22.4420325 14.5321641,22.37245 14.0445281,22.37245 C11.1595779,22.37245 8.81238226,24.7562654 8.81238226,27.686225 C8.81238226,30.6161846 11.1595779,33 14.0445281,33 C15.1173933,33 16.1155766,32.6698747 16.9466617,32.1050484 L42.8657206,32.1050484 C43.6968057,32.6698747 44.6949889,33 45.7678542,33 C48.6528043,33 51,30.6161846 51,27.686225 C51,24.7562654 48.6529145,22.3722262 45.7679643,22.3722262 Z M18.535802,24.9637823 C18.5424111,24.9575176 18.5494607,24.9515886 18.5557393,24.945212 L41.2872648,24.945212 C40.8105337,25.74597 40.5358185,26.6839911 40.5358185,27.6860013 C40.5358185,28.6880114 40.8106439,29.6260325 41.2872648,30.4267905 L18.5253377,30.4267905 C19.0020688,29.6260325 19.276784,28.6880114 19.276784,27.6860013 C19.276784,26.6915982 19.0058139,25.7605129 18.535802,24.9637823 Z M22.801598,16.0516307 L22.801598,12.7867355 C22.801598,12.2546868 23.0166117,11.7661551 23.4069848,11.4113068 C23.7451467,11.1038909 24.1669127,10.9404504 24.6122509,10.9404504 C24.6809848,10.9404504 24.7501593,10.9443658 24.8197744,10.9521966 L35.3942164,12.1455027 C36.3159553,12.2495408 37.0110045,13.0382169 37.0110045,13.9800415 L37.0110045,16.0517426 C37.0110045,16.5760723 36.5910009,17.0026286 36.0747258,17.0026286 L23.7378768,17.0026286 C23.2216017,17.0025168 22.801598,16.5759605 22.801598,16.0516307 Z M25.4452085,19.1839612 C25.4452085,18.9064144 25.6676023,18.680551 25.9408855,18.680551 L33.871717,18.680551 C34.1450003,18.680551 34.367394,18.9064144 34.367394,19.1839612 C34.367394,19.4615081 34.1450003,19.6873715 33.871717,19.6873715 L25.9408855,19.6873715 C25.6674921,19.6873715 25.4452085,19.46162 25.4452085,19.1839612 Z M37.8371328,21.3654057 C38.1302431,21.3654057 38.4103557,21.5075911 38.5861558,21.7457601 L39.7096903,23.2671778 L21.9162088,23.2671778 C21.9277746,22.6721469 21.7425016,22.0774516 21.3692017,21.5927234 C21.5369609,21.4483006 21.7521948,21.3654057 21.9754698,21.3654057 L37.8371328,21.3654057 Z M1.65678951,2.53696689 C1.68047186,2.28425494 1.79965463,2.05604229 1.99208745,1.89461539 C2.39083203,1.56079846 2.98211958,1.61785162 3.31080849,2.02214599 L20.0536751,22.6061442 C20.2068943,22.7944197 20.2786023,23.0323649 20.2656045,23.2672897 L18.1630529,23.2672897 L1.8670667,3.23267988 C1.70767902,3.03690922 1.63299702,2.78979071 1.65678951,2.53696689 Z M10.464749,27.6860013 C10.464749,25.6813097 12.0707424,24.0502605 14.0446382,24.0502605 C16.0185341,24.0502605 17.6245275,25.6813097 17.6245275,27.6860013 C17.6245275,29.6906928 16.0185341,31.321742 14.0446382,31.321742 C12.0707424,31.321742 10.464749,29.6908047 10.464749,27.6860013 Z M45.7679643,31.321742 C43.7940685,31.321742 42.1880751,29.6906928 42.1880751,27.6860013 C42.1880751,25.6813097 43.7940685,24.0502605 45.7679643,24.0502605 C47.7418602,24.0502605 49.3478536,25.6813097 49.3478536,27.6860013 C49.3478536,29.6906928 47.7418602,31.321742 45.7679643,31.321742 Z" id="Shape" fill="#00A3E7" fill-rule="nonzero"></path>
                                    </g>
                                    <g id="leaf-copy-2" transform="translate(24.500000, 282.000000) rotate(35.000000) translate(-24.500000, -282.000000) translate(13.000000, 257.000000)">
                                        <path d="M23,24.1360272 C23,19.50805 21.9224036,14.5875236 19.9657534,10.2809292 C17.9375247,5.81688307 15.1547309,2.30629423 11.9182287,0.128536925 C11.6634753,-0.0428456418 11.3365247,-0.0428456418 11.0818744,0.128536925 C7.8453722,2.30629423 5.06257848,5.81688307 3.03445291,10.2809292 C1.07759641,14.5875236 1.70530257e-13,19.50805 1.70530257e-13,24.1360272 C1.70530257e-13,32.6831253 3.61007175,39.5116461 10.7264574,44.4419996 L10.7264574,49.1900635 C10.7264574,49.6373644 11.0727982,50 11.5,50 C11.9272018,50 12.2735426,49.6373644 12.2735426,49.1900635 L12.2735426,44.4419996 C19.3898251,39.5117541 23,32.6831253 23,24.1360272 Z M1.5470852,24.1360272 C1.5470852,22.875334 1.63186547,21.5914227 1.79626906,20.3047035 L10.7264574,29.6550426 L10.7264574,35.1396088 L1.58596861,25.5689669 C1.56111211,25.0967199 1.5470852,24.6195053 1.5470852,24.1360272 Z M3.23278924,14.0334191 L10.7264574,21.8796521 L10.7264574,27.3642182 L2.10857399,18.3408774 C2.38560538,16.8854755 2.76268161,15.4399008 3.23278924,14.0334191 Z M17.825,9.4578177 C17.8206682,9.46213736 17.8160269,9.46591706 17.8116951,9.47034471 L12.2735426,15.2691662 L12.2735426,9.78460008 L15.7611883,6.13286631 C16.5062646,7.15252239 17.1987399,8.26645508 17.825,9.4578177 Z M21.3193498,21.3485497 L12.2735426,30.8199473 L12.2735426,25.3353812 L20.5327085,16.687635 C20.9085471,18.2295382 21.1733049,19.7950915 21.3193498,21.3485497 Z M12.2735426,33.1107718 L21.4452825,23.5076245 C21.4499238,23.71756 21.4529148,23.9271716 21.4529148,24.1360272 C21.4529148,26.0432657 21.2579821,27.864111 20.8738924,29.5904637 L12.2735426,38.5953379 L12.2735426,33.1107718 Z M20.0462018,14.9079345 C20.0406323,14.9134421 20.0346502,14.9183017 20.0291839,14.9240253 L12.2735426,23.0445568 L12.2735426,17.5599906 L18.566157,10.9713191 C18.5669821,10.9731549 18.5678072,10.9748828 18.5686323,10.9767186 C19.142704,12.2403276 19.6369462,13.5592282 20.0462018,14.9079345 Z M14.7750762,4.87454893 L12.2735426,7.49377564 L12.2735426,2.38080839 C13.1453767,3.09722424 13.9836906,3.9346986 14.7750762,4.87454893 Z M10.7264574,2.38080839 L10.7264574,11.8134371 L6.42772646,7.31245785 C7.69943049,5.34722788 9.15895067,3.66893143 10.7264574,2.38080839 Z M5.57961435,8.7152679 L10.7264574,14.1042615 L10.7264574,19.5888276 L3.83769955,12.375965 C4.02510314,11.903178 4.22271749,11.4361146 4.43147085,10.9767186 C4.78699103,10.193996 5.17118386,9.43913516 5.57961435,8.7152679 Z M4.39578475,35.4979247 C3.11985202,33.2758908 2.27029596,30.811092 1.85165471,28.1380855 L10.7264574,37.4304332 L10.7264574,42.4772016 C8.02524664,40.456356 5.89821076,38.1144516 4.39578475,35.4979247 Z M12.2735426,42.4772016 L12.2735426,40.8861623 L19.8275471,32.9768623 C19.4760493,33.848138 19.0685471,34.6892841 18.6042152,35.4979247 C17.1017892,38.1144516 14.9747534,40.456464 12.2735426,42.4772016 Z" id="Shape" fill="#00A3E7" fill-rule="nonzero"></path>
                                    </g>
                                    <g id="leaf-copy" transform="translate(753.500000, 346.500000) rotate(62.000000) translate(-753.500000, -346.500000) translate(743.000000, 324.000000)">
                                        <path d="M20.7171682,21.5115006 C20.7171682,17.3867648 19.7465271,13.0012914 17.9840814,9.16299157 C16.1571616,5.18436122 13.65057,2.05551018 10.7353021,0.114559953 C10.5058339,-0.038186651 10.2113343,-0.038186651 9.98195901,0.114559953 C7.06669112,2.05551018 4.56009957,5.18436122 2.73327268,9.16299157 C0.970641138,13.0012914 1.13686838e-13,17.3867648 1.13686838e-13,21.5115006 C1.13686838e-13,29.129196 3.2517593,35.2151905 9.66181837,39.6094225 L9.66181837,43.8411868 C9.66181837,44.2398487 9.97378362,44.5630517 10.3585841,44.5630517 C10.7433846,44.5630517 11.0553499,44.2398487 11.0553499,43.8411868 L11.0553499,39.6094225 C17.465316,35.2152868 20.7171682,29.129196 20.7171682,21.5115006 Z M1.38114455,22.0290647 C1.38114455,20.9296024 1.45768168,19.8098912 1.60610041,18.6877314 L9.66801185,26.8422499 L9.66801185,31.6253915 L1.41624735,23.2787449 C1.39380763,22.8668939 1.38114455,22.4507105 1.38114455,22.0290647 Z M2.46217827,12.9376602 L9.66801185,19.7064064 L9.66801185,24.4378025 L1.38114455,16.6535953 C1.64753506,15.398057 2.01012766,14.1509963 2.46217827,12.9376602 Z M16.5737346,8.88898531 C16.5694237,8.89306328 16.5648049,8.8966315 16.5604941,8.90081142 L11.0491564,14.375178 L11.0491564,9.19748361 L14.5199156,5.75007119 C15.2613843,6.71267559 15.9505067,7.76428166 16.5737346,8.88898531 Z M19.3360237,18.6420898 L11.0491564,27.3128381 L11.0491564,22.2919009 L18.6153813,14.375178 C18.9596872,15.7867388 19.202232,17.2199506 19.3360237,18.6420898 Z M11.0491564,29.7974313 L19.3291335,21.5627669 C19.3333235,21.7427859 19.3360237,21.9225271 19.3360237,22.10162 C19.3360237,23.7370702 19.1600442,25.2984385 18.8132993,26.7787798 L11.0491564,34.5004271 L11.0491564,29.7974313 Z M17.9548791,13.3436569 C17.9499308,13.3482473 17.944616,13.3522976 17.9397593,13.357068 L11.0491564,20.1252492 L11.0491564,15.5540537 L16.6399136,10.0626246 C16.6406466,10.0641547 16.6413797,10.0655948 16.6421128,10.0671249 C17.1521545,11.1202991 17.5912705,12.219557 17.9548791,13.3436569 Z M13.8114455,3.54087358 L11.0491564,5.75007119 L11.0491564,1.4375178 C12.0118689,2.04178171 12.9375672,2.74815292 13.8114455,3.54087358 Z M9.66801185,1.4375178 L9.66801185,10.0626246 L5.5245782,5.94697159 C6.75034026,4.14998383 8.15713336,2.61536536 9.66801185,1.4375178 Z M5.54039733,7.18758898 L9.66801185,12.1746788 L9.66801185,17.2502136 L4.14343365,10.5752763 C4.29372573,10.1377492 4.45220654,9.70551871 4.61962051,9.28038384 C4.90473708,8.55603557 5.21284826,7.85747122 5.54039733,7.18758898 Z M3.75673179,31.0783163 C2.56532669,29.0734564 1.77205178,26.8495586 1.38114455,24.4378025 L9.66801185,32.8219481 L9.66801185,37.3754627 C7.14575012,35.5521276 5.15962551,33.4391129 3.75673179,31.0783163 Z M11.0491564,37.3754627 L11.0491564,35.9310002 L17.9548791,28.7503559 C17.6335468,29.5413641 17.2610162,30.3050184 16.8365332,31.0391618 C15.4630448,33.4146374 13.5185503,35.5408885 11.0491564,37.3754627 Z" id="Shape" fill="#00A3E7" fill-rule="nonzero"></path>
                                    </g>
                                    <g id="pruning-shears-copy" transform="translate(803.792838, 266.334531) rotate(29.000000) translate(-803.792838, -266.334531) translate(791.292838, 243.334531)">
                                        <path d="M23.8584188,41.0920114 L18.7435463,24.9722959 C18.517941,24.2570056 18.0621819,23.6902371 17.4924375,23.3314376 L15.8803602,18.2173427 C16.8497353,17.2439669 17.4559586,15.8698515 17.4559586,14.34808 L17.4559586,1.2658473 C17.4559586,1.05124097 17.3656255,0.847696822 17.2094302,0.71071815 C17.0532349,0.573739478 16.8473701,0.516889481 16.6479641,0.55680953 C16.5802825,0.570180341 14.9725718,0.903969661 13.3879674,2.52722464 C11.4837858,4.47782402 10.6916201,7.16468375 10.4074302,9.59749808 C9.56341165,5.69350973 9.45179161,1.30749882 9.45042706,1.24853258 C9.44333141,0.937060015 9.2479281,0.665507493 8.96592147,0.575374757 C8.68400581,0.48485725 8.3789838,0.596537192 8.20977982,0.851544537 C8.09197382,1.02911661 5.35942052,5.28209275 7.35830173,13.6665534 L7.35830173,14.3479838 C7.35830173,15.8516711 7.95015178,17.2111651 8.89942249,18.1824247 L7.2765198,23.3309566 C6.70686641,23.6896599 6.2511073,24.256236 6.02568393,24.9709492 L0.909901683,41.0932619 C0.667830828,41.8610736 0.723140516,42.682657 1.06546018,43.4067009 C1.40777984,44.1307447 1.99617304,44.6702907 2.72229463,44.9262599 C3.01621832,45.0298597 3.32124033,45.082381 3.6288095,45.082381 C4.8635437,45.082381 5.95600101,44.249543 6.34662568,43.0111557 L10.8174315,28.9212063 L13.9511619,28.9212063 L18.4216039,43.0099052 C18.8126834,44.249543 19.9050497,45.082381 21.1397839,45.082381 C21.4473531,45.082381 21.7523751,45.0298597 22.0462988,44.9262599 C22.7724204,44.6702907 23.3608136,44.1306486 23.7031332,43.4067009 C24.0454529,42.6827532 24.1008536,41.8611698 23.8584188,41.0920114 Z M15.9192044,22.9036678 C15.6530265,22.9137681 15.3840285,22.9627303 15.1187604,23.055845 C14.8778721,23.1407833 14.6525397,23.2575615 14.4458562,23.4013698 L13.2509668,19.6106967 C13.7711325,19.5176782 14.2642803,19.3403947 14.7177651,19.0924094 L15.9192044,22.9036678 Z M12.4071301,13.5303443 C12.833506,13.5303443 13.1803741,13.8971278 13.1803741,14.3479838 C13.1803741,14.7988399 12.833506,15.1656234 12.4071301,15.1656234 C11.9807543,15.1656234 11.6338862,14.7988399 11.6338862,14.3479838 C11.6338862,13.8971278 11.9807543,13.5303443 12.4071301,13.5303443 Z M8.30056776,4.66270675 C8.33777444,5.06181104 8.38134901,5.48409781 8.43220118,5.92283357 C8.76351349,8.77918518 9.25857158,11.1034939 9.90664102,12.8570903 L8.57666135,12.8570903 C7.78322204,9.26207348 7.93359526,6.52673252 8.30056776,4.66270675 Z M8.72284995,14.3479838 L8.72284995,14.2998874 L10.2705205,14.2998874 C10.2701567,14.3159516 10.2693379,14.3318234 10.2693379,14.3479838 C10.2693379,15.5944513 11.2283424,16.6085167 12.4071301,16.6085167 C13.5859179,16.6085167 14.5449224,15.5944513 14.5449224,14.3479838 C14.5449224,13.1015164 13.5859179,12.087451 12.4071301,12.087451 C12.1344934,12.087451 11.8738647,12.1422809 11.6338862,12.241071 L11.6338862,12.0393545 C11.6338862,8.3502611 12.5480425,5.44081101 14.2775619,3.62555503 C14.9338186,2.93671776 15.5965342,2.522415 16.0914103,2.28116323 L16.0914103,14.3478876 C16.0914103,16.4960672 14.4386695,18.2436996 12.4071301,18.2436996 C10.3755908,18.2436996 8.72284995,16.4961634 8.72284995,14.3479838 Z M11.5203557,19.6025203 L10.3229192,23.4013698 C10.1161447,23.2575615 9.89063032,23.1406871 9.64946916,23.0556526 C9.3844739,22.9625379 9.1156579,22.9135757 8.84966196,22.9033793 L10.057651,19.0711508 C10.5093165,19.3234648 11.0011906,19.5047883 11.5203557,19.6025203 Z M5.05267008,42.5533738 C4.84771494,43.2029643 4.27560536,43.6394877 3.62890047,43.6394877 C3.46824766,43.6394877 3.30841358,43.6118803 3.15385575,43.5573389 C2.36860373,43.280592 1.94277372,42.379938 2.20403922,41.5509477 L7.3197305,25.4287311 C7.52923413,24.7646154 8.11699054,24.3435792 8.7459563,24.3435792 C8.9026974,24.3435792 9.06198567,24.3696474 9.21854483,24.424766 C9.59888991,24.5588589 9.90709586,24.8414736 10.0864885,25.2207621 C10.2657901,25.5999545 10.2947185,26.0303215 10.1683614,26.4311572 L5.05267008,42.5533738 Z M11.2753739,27.478313 L11.4624079,26.888843 C11.6921978,26.1598933 11.6535356,25.3827509 11.3561551,24.6864106 L12.3843877,21.4245098 L13.4126202,24.6864106 C13.1153307,25.3827509 13.0766685,26.1599895 13.3068223,26.8901897 L13.4934015,27.478313 L11.2753739,27.478313 Z M21.6149196,43.5573389 C21.4603618,43.6117841 21.3005277,43.6394877 21.1398749,43.6394877 C20.493261,43.6394877 19.9210604,43.2029643 19.7157414,42.5521233 L14.6008688,26.4325039 C14.4740568,26.0303215 14.5029852,25.6000507 14.6822869,25.2207621 C14.8616795,24.8414736 15.1698854,24.5587627 15.5496847,24.4249584 C15.7065168,24.3698398 15.865805,24.3436754 16.0227281,24.3436754 C16.6518758,24.3436754 17.2396322,24.764904 17.4494997,25.4299816 L22.5643723,41.549601 C22.8260926,42.379938 22.4001716,43.280592 21.6149196,43.5573389 Z" id="Shape" fill="#00A3E7" fill-rule="nonzero"></path>
                                    </g>
                                    <g id="tree-copy-2" transform="translate(148.000000, 293.000000)">
                                        <path d="M20.6437155,9.18268467 C18.2077657,3.26109287 15.1380753,0 12,0 C8.86192469,0 5.79223431,3.26109287 3.35628452,9.18268467 C1.28605858,14.2151857 0,20.4088704 0,25.3466523 C0,31.6276479 4.3467113,36.9180605 10.1850377,37.8490605 L9.68083682,47.412527 L8.78661088,47.412527 C8.37067782,47.412527 8.0334728,47.7679093 8.0334728,48.2062635 C8.0334728,48.6446177 8.37067782,49 8.78661088,49 L15.2133891,49 C15.6293222,49 15.9665272,48.6446177 15.9665272,48.2062635 C15.9665272,47.7679093 15.6293222,47.412527 15.2133891,47.412527 L14.3191632,47.412527 L13.8150628,37.8494838 C16.5376067,37.4135637 19.0368201,35.9998661 20.9001841,33.8297905 C22.899113,31.5017084 24,28.4890022 24,25.3466523 C24,20.4088704 22.7139414,14.2151857 20.6437155,9.18268467 Z M11.1894226,47.412527 L11.9983933,32.0668488 C11.9988954,32.0668488 11.9994979,32.0669546 12,32.0669546 C12.0005021,32.0669546 12.0011046,32.0668488 12.0016067,32.0668488 L12.8105774,47.412527 L11.1894226,47.412527 Z M19.7832301,32.7645961 C18.1861757,34.6245853 16.0551967,35.8469395 13.7309121,36.2539676 L13.4471297,30.8705292 L17.3526025,26.7545292 C17.646728,26.4445486 17.646728,25.9419546 17.3526025,25.6320799 C17.058477,25.3220994 16.58159,25.3220994 16.2875649,25.6320799 L13.3350628,28.7437387 L13.1511967,25.2559546 L14.9425607,23.3680259 C15.2366862,23.0580454 15.2366862,22.5554514 14.9425607,22.2455767 C14.6484351,21.9355961 14.1715481,21.9355961 13.877523,22.2455767 L13.0391297,23.12927 L12.7520335,17.6829676 C12.729841,17.2622873 12.3997657,16.933257 12.0001004,16.933257 C11.6004351,16.933257 11.2702594,17.2622873 11.2481674,17.6829676 L10.7919665,26.3376587 L7.71263598,23.0923348 C7.41851046,22.7823542 6.94162343,22.7823542 6.64759833,23.0923348 C6.3534728,23.4023153 6.3534728,23.9049093 6.64759833,24.214784 L10.6798996,28.4644492 L10.2691883,36.2562959 C5.23631799,35.3796933 1.50627615,30.7881922 1.50627615,25.3466523 C1.50627615,20.6837149 2.77486192,14.5868661 4.73824268,9.81407559 C6.88900418,4.58599784 9.53573222,1.587473 12,1.587473 C14.4642678,1.587473 17.1109958,4.58599784 19.2617573,9.81407559 C21.2251381,14.5868661 22.4937238,20.6837149 22.4937238,25.3466523 C22.4937238,28.094568 21.531113,30.7289266 19.7832301,32.7645961 Z" id="Shape" fill="#00A3E7" fill-rule="nonzero"></path>
                                    </g>
                                    <g id="tree-copy" transform="translate(441.000000, 204.000000)">
                                        <path d="M18.063251,8.0582743 C15.931795,2.86177538 13.2458159,0 10.5,0 C7.7541841,0 5.06820502,2.86177538 2.93674895,8.0582743 C1.12530126,12.4745508 0,17.9098251 0,22.2429806 C0,27.7548747 3.80337238,32.3974816 8.91190795,33.2144816 L8.47073222,41.6069114 L7.68828452,41.6069114 C7.3243431,41.6069114 7.0292887,41.9187775 7.0292887,42.3034557 C7.0292887,42.6881339 7.3243431,43 7.68828452,43 L13.3117155,43 C13.6756569,43 13.9707113,42.6881339 13.9707113,42.3034557 C13.9707113,41.9187775 13.6756569,41.6069114 13.3117155,41.6069114 L12.5292678,41.6069114 L12.0881799,33.2148531 C14.4704059,32.832311 16.6572176,31.5917192 18.2876611,29.6873672 C20.0367238,27.6443564 21,25.0005529 21,22.2429806 C21,17.9098251 19.8746987,12.4745508 18.063251,8.0582743 Z M9.79074477,41.6069114 L10.4985941,28.1402959 C10.4990335,28.1402959 10.4995607,28.1403888 10.5,28.1403888 C10.5004393,28.1403888 10.5009665,28.1402959 10.5014059,28.1402959 L11.2092552,41.6069114 L9.79074477,41.6069114 Z M17.3103264,28.7526048 C15.9129038,30.3848402 14.0482971,31.4575184 12.0145481,31.8147063 L11.7662385,27.0904644 L15.1835272,23.4784644 C15.440887,23.2064406 15.440887,22.7653888 15.1835272,22.4934579 C14.9261674,22.2214341 14.5088912,22.2214341 14.2516192,22.4934579 L11.6681799,25.2240972 L11.5072971,22.1633888 L13.0747406,20.506635 C13.3321004,20.2346112 13.3321004,19.7935594 13.0747406,19.5216285 C12.8173808,19.2496048 12.4001046,19.2496048 12.1428326,19.5216285 L11.4092385,20.2971145 L11.1580293,15.5177063 C11.1386109,15.1485378 10.849795,14.859797 10.5000879,14.859797 C10.1503808,14.859797 9.86147699,15.1485378 9.84214644,15.5177063 L9.44297071,23.1126393 L6.74855649,20.2647019 C6.49119665,19.9926782 6.0739205,19.9926782 5.81664854,20.2647019 C5.5592887,20.5367257 5.5592887,20.9777775 5.81664854,21.2497084 L9.34491213,24.9790065 L8.98553975,31.8167495 C4.58177824,31.047486 1.31799163,27.0182095 1.31799163,22.2429806 C1.31799163,18.1510151 2.42800418,12.8007192 4.14596234,8.61235205 C6.02787866,4.02444708 8.34376569,1.39308855 10.5,1.39308855 C12.6562343,1.39308855 14.9721213,4.02444708 16.8540377,8.61235205 C18.5719958,12.8007192 19.6820084,18.1510151 19.6820084,22.2429806 C19.6820084,24.6544168 18.8397238,26.9662009 17.3103264,28.7526048 Z" id="Shape" fill="#00A3E7" fill-rule="nonzero"></path>
                                    </g>
                                    <g id="grass-copy-2" transform="translate(121.000000, 198.000000)">
                                        <path d="M35.1454141,25.3675933 C35.4497092,25.413568 35.7328521,25.2015442 35.7781995,24.894196 C36.3259308,21.1858423 37.2461638,18.5805072 37.9216247,17.048041 C38.0938112,16.6575933 37.975433,16.2088708 37.6338061,15.9570223 C37.2914369,15.7045737 36.8312833,15.7275986 36.5151133,16.013197 C34.256427,18.0529603 32.5128159,21.1931922 31.3306665,25.3468934 C31.9920259,17.6770624 33.827074,12.4477174 35.0131571,9.75673287 C35.217777,9.29241054 35.077059,8.7589386 34.6709364,8.45946532 C34.2634035,8.15901704 33.7160434,8.18654188 33.3397565,8.52643993 C31.4650016,10.2194802 29.8028823,12.4703673 28.3997848,15.2163265 C27.3285176,17.3130145 26.4045736,19.7034758 25.6505897,22.3250108 C26.0438726,18.3029338 26.708943,14.4490059 27.6425353,10.8017019 C27.7194997,10.5009536 27.5406335,10.1939804 27.243018,10.1162058 C26.9454026,10.0380563 26.641627,10.2191052 26.5646626,10.5199285 C24.0907432,20.185198 24.3050857,27.6563552 23.9739235,30.6676629 L21.9727006,30.6676629 C21.6027223,27.2370326 20.7684341,22.8965825 19.5816089,18.8734556 C21.8846035,11.2143495 25.1626042,5.42535773 29.3260295,1.6654793 C29.3477755,1.64575442 29.3987635,1.59947968 29.4774349,1.65760435 C29.5531376,1.71332903 29.5272354,1.77205369 29.5147667,1.80025353 C28.7072714,3.63226802 27.9624905,5.67503129 27.3009826,7.87176869 C27.2114753,8.16899198 27.3773532,8.48331518 27.6714804,8.57368966 C27.9656819,8.66413914 28.2766566,8.4965151 28.3661639,8.19929181 C29.0143126,6.04672916 29.7429881,4.04776563 30.5318546,2.2579009 C30.7737322,1.70905405 30.6136432,1.10245753 30.1335249,0.748459564 C29.6516995,0.393486601 29.029082,0.424686422 28.5840689,0.826534116 C26.2000279,2.97947176 24.0700363,5.81250551 22.2532459,9.2468108 C21.0259717,11.5666975 19.9353334,14.1723325 19.0007763,17.0104662 C18.1363555,14.3851063 17.1380448,11.9591702 16.0205395,9.77225778 C14.1434096,6.09855386 11.9214614,3.08882113 9.41637034,0.826534116 C8.97135727,0.424611423 8.34873975,0.393261603 7.86691439,0.748534564 C7.38679605,1.10245753 7.22670712,1.70905405 7.46865886,2.2579759 C9.01922809,5.77605571 11.3917653,12.5067421 12.3505176,22.3276357 C11.5964594,19.7050508 10.6722928,17.3136145 9.60058022,15.2162515 C8.19740858,12.4702923 6.53536343,10.2194052 4.66060857,8.52628993 C4.28432166,8.18661688 3.73696152,8.15909204 3.3294287,8.45939032 C2.92323182,8.7587886 2.78251387,9.29226054 2.98720801,9.75665787 C4.17329105,12.4476424 6.00833911,17.6769124 6.6696986,25.3468184 C5.48754913,21.1932672 3.74386383,18.0530353 1.48525179,16.013347 C1.16908173,15.7278236 0.709076553,15.7046487 0.366633205,15.9570223 C0.0249320409,16.2087958 -0.0935204044,16.6575183 0.0786661076,17.048116 C1.02198101,19.1884538 2.58724546,23.7641025 2.6688114,30.6678129 L1.63398531,30.6678129 C1.32657301,30.6678129 1.07727366,30.9195864 1.07727366,31.2303847 C1.07727366,31.5411829 1.32649879,31.7929564 1.63398531,31.7929564 C1.96462794,31.7929564 36.095186,31.7929564 36.4276099,31.7929564 C36.7350222,31.7929564 36.9843215,31.5411829 36.9843215,31.2303847 C36.9843215,30.9195864 36.7350964,30.6678129 36.4276099,30.6678129 L35.3314052,30.6678129 C35.3443934,29.592769 35.3941939,28.5241002 35.4806583,27.4836312 C35.506412,27.1740329 35.2789329,26.9019345 34.9724854,26.8759096 C34.6650731,26.8507098 34.3968481,27.0798335 34.3710943,27.3894317 C34.2820323,28.4609505 34.2305248,29.5613442 34.2174624,30.6678129 L31.3769787,30.6678129 C31.6379303,28.5939248 32.7579591,21.7169142 36.4763713,17.6312377 C35.8481132,19.2665283 35.1347267,21.6294647 34.6770223,24.728147 C34.6316749,25.0354202 34.8413416,25.3217686 35.1454141,25.3675933 Z M3.78282845,30.6678129 C3.71180151,24.5169482 2.48690229,20.1398983 1.52362266,17.6312377 C5.23847244,21.7137643 6.36080193,28.5933998 6.62286684,30.6678129 L3.78282845,30.6678129 Z M8.02930408,30.6677379 C7.94818345,20.1036735 5.59724382,12.9935643 4.10953751,9.54050911 C8.01587056,13.1838382 10.2082056,18.8144309 11.3634881,22.9283073 C12.1190306,25.6186169 12.5401454,28.0232531 12.7593121,29.5530943 C12.7656949,29.9214172 12.7702222,30.292815 12.7723745,30.6677379 L8.02930408,30.6677379 Z M14.02659,30.6677379 C13.9940081,30.3713396 13.9439108,29.955767 13.871251,29.4421699 C13.6161626,15.4949499 10.4217318,6.19282832 8.48582099,1.80025353 C8.47327809,1.77212869 8.44745012,1.71340403 8.52307859,1.65760435 C8.60152736,1.59970468 8.65258956,1.64575442 8.67440975,1.6654793 C15.910919,8.2007918 19.770643,20.9125439 20.8525977,30.6677379 L14.02659,30.6677379 Z M25.2278421,30.6678129 C25.2299944,30.295215 25.2345218,29.9238171 25.2409045,29.5534693 C26.2242973,22.6901087 28.8462081,14.2459821 33.8906791,9.54073411 C32.4035666,12.9922143 30.0521816,20.1030735 29.9709125,30.6678129 L25.2278421,30.6678129 Z" id="Shape" fill="#00A3E7" fill-rule="nonzero"></path>
                                    </g>
                                    <g id="grass-copy" transform="translate(553.000000, 310.000000)">
                                        <path d="M35.1454141,25.3675933 C35.4497092,25.413568 35.7328521,25.2015442 35.7781995,24.894196 C36.3259308,21.1858423 37.2461638,18.5805072 37.9216247,17.048041 C38.0938112,16.6575933 37.975433,16.2088708 37.6338061,15.9570223 C37.2914369,15.7045737 36.8312833,15.7275986 36.5151133,16.013197 C34.256427,18.0529603 32.5128159,21.1931922 31.3306665,25.3468934 C31.9920259,17.6770624 33.827074,12.4477174 35.0131571,9.75673287 C35.217777,9.29241054 35.077059,8.7589386 34.6709364,8.45946532 C34.2634035,8.15901704 33.7160434,8.18654188 33.3397565,8.52643993 C31.4650016,10.2194802 29.8028823,12.4703673 28.3997848,15.2163265 C27.3285176,17.3130145 26.4045736,19.7034758 25.6505897,22.3250108 C26.0438726,18.3029338 26.708943,14.4490059 27.6425353,10.8017019 C27.7194997,10.5009536 27.5406335,10.1939804 27.243018,10.1162058 C26.9454026,10.0380563 26.641627,10.2191052 26.5646626,10.5199285 C24.0907432,20.185198 24.3050857,27.6563552 23.9739235,30.6676629 L21.9727006,30.6676629 C21.6027223,27.2370326 20.7684341,22.8965825 19.5816089,18.8734556 C21.8846035,11.2143495 25.1626042,5.42535773 29.3260295,1.6654793 C29.3477755,1.64575442 29.3987635,1.59947968 29.4774349,1.65760435 C29.5531376,1.71332903 29.5272354,1.77205369 29.5147667,1.80025353 C28.7072714,3.63226802 27.9624905,5.67503129 27.3009826,7.87176869 C27.2114753,8.16899198 27.3773532,8.48331518 27.6714804,8.57368966 C27.9656819,8.66413914 28.2766566,8.4965151 28.3661639,8.19929181 C29.0143126,6.04672916 29.7429881,4.04776563 30.5318546,2.2579009 C30.7737322,1.70905405 30.6136432,1.10245753 30.1335249,0.748459564 C29.6516995,0.393486601 29.029082,0.424686422 28.5840689,0.826534116 C26.2000279,2.97947176 24.0700363,5.81250551 22.2532459,9.2468108 C21.0259717,11.5666975 19.9353334,14.1723325 19.0007763,17.0104662 C18.1363555,14.3851063 17.1380448,11.9591702 16.0205395,9.77225778 C14.1434096,6.09855386 11.9214614,3.08882113 9.41637034,0.826534116 C8.97135727,0.424611423 8.34873975,0.393261603 7.86691439,0.748534564 C7.38679605,1.10245753 7.22670712,1.70905405 7.46865886,2.2579759 C9.01922809,5.77605571 11.3917653,12.5067421 12.3505176,22.3276357 C11.5964594,19.7050508 10.6722928,17.3136145 9.60058022,15.2162515 C8.19740858,12.4702923 6.53536343,10.2194052 4.66060857,8.52628993 C4.28432166,8.18661688 3.73696152,8.15909204 3.3294287,8.45939032 C2.92323182,8.7587886 2.78251387,9.29226054 2.98720801,9.75665787 C4.17329105,12.4476424 6.00833911,17.6769124 6.6696986,25.3468184 C5.48754913,21.1932672 3.74386383,18.0530353 1.48525179,16.013347 C1.16908173,15.7278236 0.709076553,15.7046487 0.366633205,15.9570223 C0.0249320409,16.2087958 -0.0935204044,16.6575183 0.0786661076,17.048116 C1.02198101,19.1884538 2.58724546,23.7641025 2.6688114,30.6678129 L1.63398531,30.6678129 C1.32657301,30.6678129 1.07727366,30.9195864 1.07727366,31.2303847 C1.07727366,31.5411829 1.32649879,31.7929564 1.63398531,31.7929564 C1.96462794,31.7929564 36.095186,31.7929564 36.4276099,31.7929564 C36.7350222,31.7929564 36.9843215,31.5411829 36.9843215,31.2303847 C36.9843215,30.9195864 36.7350964,30.6678129 36.4276099,30.6678129 L35.3314052,30.6678129 C35.3443934,29.592769 35.3941939,28.5241002 35.4806583,27.4836312 C35.506412,27.1740329 35.2789329,26.9019345 34.9724854,26.8759096 C34.6650731,26.8507098 34.3968481,27.0798335 34.3710943,27.3894317 C34.2820323,28.4609505 34.2305248,29.5613442 34.2174624,30.6678129 L31.3769787,30.6678129 C31.6379303,28.5939248 32.7579591,21.7169142 36.4763713,17.6312377 C35.8481132,19.2665283 35.1347267,21.6294647 34.6770223,24.728147 C34.6316749,25.0354202 34.8413416,25.3217686 35.1454141,25.3675933 Z M3.78282845,30.6678129 C3.71180151,24.5169482 2.48690229,20.1398983 1.52362266,17.6312377 C5.23847244,21.7137643 6.36080193,28.5933998 6.62286684,30.6678129 L3.78282845,30.6678129 Z M8.02930408,30.6677379 C7.94818345,20.1036735 5.59724382,12.9935643 4.10953751,9.54050911 C8.01587056,13.1838382 10.2082056,18.8144309 11.3634881,22.9283073 C12.1190306,25.6186169 12.5401454,28.0232531 12.7593121,29.5530943 C12.7656949,29.9214172 12.7702222,30.292815 12.7723745,30.6677379 L8.02930408,30.6677379 Z M14.02659,30.6677379 C13.9940081,30.3713396 13.9439108,29.955767 13.871251,29.4421699 C13.6161626,15.4949499 10.4217318,6.19282832 8.48582099,1.80025353 C8.47327809,1.77212869 8.44745012,1.71340403 8.52307859,1.65760435 C8.60152736,1.59970468 8.65258956,1.64575442 8.67440975,1.6654793 C15.910919,8.2007918 19.770643,20.9125439 20.8525977,30.6677379 L14.02659,30.6677379 Z M25.2278421,30.6678129 C25.2299944,30.295215 25.2345218,29.9238171 25.2409045,29.5534693 C26.2242973,22.6901087 28.8462081,14.2459821 33.8906791,9.54073411 C32.4035666,12.9922143 30.0521816,20.1030735 29.9709125,30.6678129 L25.2278421,30.6678129 Z" id="Shape" fill="#00A3E7" fill-rule="nonzero"></path>
                                    </g>
                                </g>
                            </g>
                        </g>
                    </g>
                </g>
            </g>
        </g>
    </g>
</svg>