<?xml version="1.0" encoding="UTF-8"?>
<svg width="24px" height="20px" viewBox="0 0 24 20" version="1.1" xmlns="http://www.w3.org/2000/svg" xmlns:xlink="http://www.w3.org/1999/xlink">
    <!-- Generator: sketchtool 49.1 (51147) - http://www.bohemiancoding.com/sketch -->
    <title>33F23FAF-C534-40BE-8537-40E24A08BA4B</title>
    <desc>Created with sketchtool.</desc>
    <defs></defs>
    <g id="z" stroke="none" stroke-width="1" fill="none" fill-rule="evenodd">
        <g id="22-1-Waiting-for-bids-" transform="translate(-204.000000, -2149.000000)" fill="#39A2E0">
            <g id="FAQ" transform="translate(76.000000, 1739.847675)">
                <g id="2" transform="translate(128.000000, 218.488509)">
                    <g id="card" transform="translate(0.000000, 190.919829)">
                        <path d="M23.15,0.590379476 C22.7642487,0.208309071 22.2362158,-0.00150892739 21.689,0.00983965794 L3.06,0.00983965794 C2.51243948,-0.0017800583 1.98399261,0.208058828 1.598,0.590379476 C1.20459528,0.951142422 0.984179731,1.45850903 0.991,1.9876109 L0.991,17.0619669 C0.984092178,17.5939469 1.20429067,18.1043834 1.598,18.4690379 C1.98651411,18.8476052 2.51327182,19.0567734 3.06,19.0495778 L21.687,19.0495778 C22.2334676,19.0569525 22.7599827,18.8477376 23.148,18.4690379 C23.5420781,18.1045557 23.7626492,17.5940964 23.756,17.0619669 L23.756,1.9876109 C23.7629531,1.45868379 23.5429314,0.951387969 23.15,0.590379476 Z M22.102,17.0619669 C22.1023913,17.1696337 22.0579397,17.2727579 21.979,17.3473169 C21.9027175,17.4239054 21.7979778,17.466551 21.689,17.4653928 L3.06,17.4653928 C2.95067644,17.4668205 2.84552361,17.4241538 2.769,17.3473169 C2.69006035,17.2727579 2.64560871,17.1696337 2.646,17.0619669 L2.64599744,9.52478888 L22.1,9.52478888 L22.1,17.0619669 L22.102,17.0619669 Z M22.102,4.76239444 L2.64999004,4.76239444 L2.65,1.9876109 C2.64922256,1.88272272 2.69396979,1.78249243 2.773,1.71210048 C2.84952361,1.63526362 2.95467644,1.59259691 3.064,1.59402459 L21.691,1.59402459 C21.7999778,1.59286643 21.9047175,1.63551206 21.981,1.71210048 C22.0600302,1.78249243 22.1047774,1.88272272 22.104,1.9876109 L22.10401,4.76239444 L22.102,4.76239444 Z M4.302,14.2871833 L7.613,14.2871833 L7.613,15.8713683 L4.302,15.8713683 L4.302,14.2871833 Z M9.269,14.2871833 L14.236,14.2871833 L14.236,15.8713683 L9.269,15.8713683 L9.269,14.2871833 Z" id="Forma_1"></path>
                    </g>
                </g>
            </g>
        </g>
    </g>
</svg>