<?xml version="1.0" encoding="UTF-8"?>
<svg width="34px" height="18px" viewBox="0 0 34 18" version="1.1" xmlns="http://www.w3.org/2000/svg" xmlns:xlink="http://www.w3.org/1999/xlink">
    <!-- Generator: sketchtool 49.1 (51147) - http://www.bohemiancoding.com/sketch -->
    <title>8E9B5905-332A-4831-B63B-3247A658AB57</title>
    <desc>Created with sketchtool.</desc>
    <defs></defs>
    <g id="z" stroke="none" stroke-width="1" fill="none" fill-rule="evenodd">
        <g id="22-2-Waiting-for-bids-" transform="translate(-660.000000, -921.000000)" fill="#FF9000" fill-rule="nonzero">
            <g id="3" transform="translate(262.000000, 798.000000)">
                <g id="1" transform="translate(79.942982, 42.000000)">
                    <g id="Group-15" transform="translate(62.000000, 81.000000)">
                        <g id="Group-17" transform="translate(192.000000, 0.000000)">
                            <g id="Group-6-Copy-3" transform="translate(50.942982, 0.000000)">
                                <g id="User">
                                    <g id="crown-copy" transform="translate(13.978070, 0.000000)">
                                        <path d="M31.6552414,6.91655556 C31.660292,7.00651111 31.65364,7.09805556 31.630851,7.18898889 L29.5983129,12.2556556 C29.4958237,12.6620444 29.128735,12.9478 28.7067061,12.95 L16.5114774,13.0111111 C16.5104098,13.0111111 12.4437322,13.0111111 4.3114445,13.0111111 C3.88719836,13.0111111 3.51752279,12.7243778 3.4150336,12.3159111 L1.38249547,7.21868889 C1.35909049,7.12531111 1.35231536,7.0312 1.3582282,6.93892222 C0.571943909,6.69313333 3.26849658e-13,5.9631 3.26849658e-13,5.10277778 C3.26849658e-13,4.04127778 0.870295868,3.17777778 1.94015002,3.17777778 C3.01000418,3.17777778 3.88030005,4.04127778 3.88030005,5.10277778 C3.88030005,5.70056667 3.60424442,6.23541111 3.17199131,6.58875556 L5.71672904,9.13268889 C6.35987337,9.7757 7.25234238,10.1443222 8.16538314,10.1443222 C9.24496885,10.1443222 10.2742954,9.63563333 10.9224903,8.78337778 L15.1045915,3.28533333 C14.7532703,2.937 14.5357272,2.45568889 14.5357272,1.925 C14.5357272,0.8635 15.406023,0 16.4758772,0 C17.5457313,0 18.4160272,0.8635 18.4160272,1.925 C18.4160272,2.4398 18.2100634,2.90705556 17.8770967,3.25282222 C17.8778358,3.2538 19.2629592,5.09295926 22.0324669,8.7703 C22.6804154,9.63074444 23.7134375,10.1444444 24.7961028,10.1444444 C25.7175201,10.1444444 26.5839972,9.78841111 27.2355181,9.14185556 L29.7962697,6.6011 C29.354901,6.24787778 29.0714543,5.7079 29.0714543,5.10277778 C29.0714543,4.04127778 29.9417502,3.17777778 31.0116044,3.17777778 C32.0814585,3.17777778 32.9517544,4.04127778 32.9517544,5.10277778 C32.9517544,5.94012222 32.4091283,6.65231111 31.6552414,6.91655556 Z M29.3999864,15.8833333 C29.3999864,15.3770889 28.9863341,14.9666667 28.4761054,14.9666667 L4.57838451,14.9666667 C4.06815585,14.9666667 3.65450354,15.3770889 3.65450354,15.8833333 L3.65450354,17.0833333 C3.65450354,17.5895778 4.06815585,18 4.57838451,18 C14.5891388,18 22.0972045,18 27.1025817,18 C27.4078092,18 27.8656504,18 28.4761054,18 C28.9863341,18 29.3999864,17.5895778 29.3999864,17.0833333 L29.3999864,15.8833333 Z" id="Shape"></path>
                                    </g>
                                </g>
                            </g>
                        </g>
                    </g>
                </g>
            </g>
        </g>
    </g>
</svg>