<?xml version="1.0" encoding="UTF-8"?>
<svg width="46px" height="46px" viewBox="0 0 46 46" version="1.1" xmlns="http://www.w3.org/2000/svg" xmlns:xlink="http://www.w3.org/1999/xlink">
    <!-- Generator: sketchtool 49.1 (51147) - http://www.bohemiancoding.com/sketch -->
    <title>B67CF42B-4C1C-4707-B033-5BC4E1D54061</title>
    <desc>Created with sketchtool.</desc>
    <defs></defs>
    <g id="z" stroke="none" stroke-width="1" fill="none" fill-rule="evenodd">
        <g id="22-1-Waiting-for-bids-" transform="translate(-1053.000000, -2494.000000)">
            <g id="Footer" transform="translate(75.000000, 2321.527525)">
                <g id="Social-icon" transform="translate(979.000000, 173.194014)">
                    <g id="Facebook">
                        <circle id="Oval-Copy" stroke="#C7C6C6" cx="22" cy="22" r="22"></circle>
                        <g id="f" transform="translate(18.000000, 12.000000)" fill="#C7C6C6">
                            <path d="M5.31,6.95 L5.31,5.38 C5.30666895,5.19950647 5.31669632,5.01901382 5.34,4.84 C5.35957411,4.70181096 5.40721797,4.56908876 5.48,4.45 C5.55993567,4.32251054 5.6848577,4.22971132 5.83,4.19 C6.04308699,4.14075257 6.26131342,4.11725127 6.48,4.12 L7.95,4.12 L7.95,0.98 L5.6,0.98 C4.51434516,0.874189964 3.43763669,1.25506643 2.66,2.02 C2.00470252,2.89197942 1.6884268,3.97229199 1.77,5.06 L1.77,6.95 L4.54747351e-13,6.95 L4.54747351e-13,10.09 L1.77,10.09 L1.77,19.2 L5.31,19.2 L5.31,10.09 L7.66,10.09 L7.97,6.95 L5.31,6.95 Z" id="Forma_1"></path>
                        </g>
                    </g>
                </g>
            </g>
        </g>
    </g>
</svg>