<?xml version="1.0" encoding="UTF-8"?>
<svg width="84px" height="84px" viewBox="0 0 84 84" version="1.1" xmlns="http://www.w3.org/2000/svg" xmlns:xlink="http://www.w3.org/1999/xlink">
    <!-- Generator: sketchtool 49.1 (51147) - http://www.bohemiancoding.com/sketch -->
    <title>6C13E406-EABE-406C-B594-B952A9BEEB0C</title>
    <desc>Created with sketchtool.</desc>
    <defs></defs>
    <g id="z" stroke="none" stroke-width="1" fill="none" fill-rule="evenodd">
        <g id="22-3Waiting-for-bids-hover-State" transform="translate(-784.000000, -490.000000)">
            <g id="2" transform="translate(185.000000, 490.000000)">
                <g id="Group-10">
                    <g id="3" transform="translate(523.000000, 0.000000)">
                        <g id="1">
                            <g id="Group-18">
                                <g id="Flexibility-Copy" transform="translate(76.000000, 0.000000)">
                                    <g id="Group-20">
                                        <circle id="Oval" fill="#FDE9CB" cx="42" cy="42" r="42"></circle>
                                        <g id="calendar" transform="translate(21.000000, 24.000000)">
                                            <polygon id="Path-8" fill="#FFFFFF" points="1.32258065 15.9667944 1.32258065 31.7394636 5.03433923 35.3793103 37.2029136 35.3793103 39.6774194 30.5261814 39.6774194 5.04725415 35.9656608 2.62068966 6.27159209 2.62068966 2.55983351 5.04725415"></polygon>
                                            <path d="M34.5937454,2.53344009 L29.4688006,2.53344009 L29.4688006,1.26672005 C29.4688006,0.506775369 28.9563356,0 28.1874908,0 C27.418646,0 26.906181,0.506629786 26.906181,1.26672005 L26.906181,2.53344009 L14.093819,2.53344009 L14.093819,1.26672005 C14.093819,0.506775369 13.581354,0 12.8125092,0 C12.0438117,0 11.5311994,0.506629786 11.5311994,1.26672005 L11.5311994,2.53344009 L6.4062546,2.53344009 C2.8187049,2.53344009 0,5.3200495 0,8.86674916 L0,31.6666909 C0,35.2133906 2.8187049,38 6.4062546,38 L34.5937454,38 C38.1812951,38 41,35.2133906 41,31.6666909 L41,8.86674916 C41,5.3200495 38.1812951,2.53344009 34.5937454,2.53344009 Z M2.56247239,8.86674916 C2.56247239,6.84008444 4.35624724,5.06673461 6.4062546,5.06673461 L11.5311994,5.06673461 L11.5311994,6.33345465 C11.5311994,7.09339933 12.0436644,7.6001747 12.8125092,7.6001747 C13.5812067,7.6001747 14.093819,7.09354491 14.093819,6.33345465 L14.093819,5.06673461 L26.9063282,5.06673461 L26.9063282,6.33345465 C26.9063282,7.09339933 27.4187933,7.6001747 28.1876381,7.6001747 C28.9564829,7.6001747 29.4689479,7.09354491 29.4689479,6.33345465 L29.4689479,5.06673461 L34.5938927,5.06673461 C36.6439,5.06673461 38.4376749,6.84008444 38.4376749,8.86674916 L38.4376749,12.6667637 L2.56247239,12.6667637 L2.56247239,8.86674916 Z M38.4375276,31.6666909 C38.4375276,33.6933557 36.6437528,35.4667055 34.5937454,35.4667055 L6.4062546,35.4667055 C4.35624724,35.4667055 2.56247239,33.6933557 2.56247239,31.6666909 L2.56247239,15.2000582 L38.4375276,15.2000582 L38.4375276,31.6666909 Z" id="Shape" fill="#FF9000" fill-rule="nonzero"></path>
                                            <path d="M10.4246805,32.7586207 C9.6779644,32.7586207 9.18001064,32.4965668 8.68219993,31.972459 C8.18438923,31.4483512 7.93548387,30.6620388 7.93548387,30.137931 C7.93548387,29.3516187 8.18438923,28.8275109 8.68219993,28.3034031 C9.6779644,27.2551875 11.1715396,27.2551875 12.167161,28.3034031 C12.6649717,28.8275109 12.9138771,29.6138232 12.9138771,30.137931 C12.9138771,30.6620388 12.6649717,31.4483512 12.167161,31.972459 C11.6693503,32.4965668 11.1713965,32.7586207 10.4246805,32.7586207 Z M12.167161,22.8000452 C11.6693503,23.324153 11.1713965,23.5862069 10.4246805,23.5862069 C9.6779644,23.5862069 9.18001064,23.324153 8.68219993,22.8000452 C8.18438923,22.2759374 7.93548387,21.7518296 7.93548387,20.9655172 C7.93548387,20.1792049 8.18438923,19.6550971 8.68219993,19.1309893 C9.6779644,18.0827737 11.1715396,18.0827737 12.167161,19.1309893 C12.6649717,19.6550971 12.9138771,20.4414094 12.9138771,20.9655172 C12.9138771,21.4896251 12.6649717,22.2759374 12.167161,22.8000452 Z M20.5,32.7586207 C19.7532839,32.7586207 19.2553302,32.4965668 18.7575195,31.972459 C18.2597088,31.4483512 18.0108034,30.6620388 18.0108034,30.137931 C18.0108034,29.6138232 18.2597088,28.8275109 18.7575195,28.3034031 C19.7532839,27.2551875 21.2468591,27.2551875 22.2424805,28.3034031 C22.7402912,28.8275109 22.9891966,29.6138232 22.9891966,30.137931 C22.9891966,30.6620388 22.7402912,31.4483512 22.2424805,31.972459 C21.7446698,32.4965668 21.2467161,32.7586207 20.5,32.7586207 Z M20.5,23.5862069 C19.7532839,23.5862069 19.2553302,23.324153 18.7575195,22.8000452 C18.2597088,22.2759374 18.0108034,21.4896251 18.0108034,20.9655172 C18.0108034,20.4414094 18.2597088,19.6550971 18.7575195,19.1309893 C19.7532839,18.0827737 21.2468591,18.0827737 22.2424805,19.1309893 C22.7402912,19.6550971 22.9891966,20.4414094 22.9891966,20.9655172 C22.9891966,21.4896251 22.7402912,22.2759374 22.2424805,22.8000452 C21.7446698,23.324153 21.2467161,23.5862069 20.5,23.5862069 Z M30.5753195,32.7586207 C29.8286035,32.7586207 29.3306497,32.4965668 28.832839,31.972459 C28.3350283,31.4483512 28.0861229,30.6620388 28.0861229,30.137931 C28.0861229,29.6138232 28.3350283,28.8275109 28.832839,28.3034031 C29.8286035,27.2551875 31.3221786,27.2551875 32.3178001,28.3034031 C32.8156108,28.8275109 33.0645161,29.3516187 33.0645161,30.137931 C33.0645161,30.9242434 32.8156108,31.4483512 32.3178001,31.972459 C31.8199894,32.4965668 31.3220356,32.7586207 30.5753195,32.7586207 Z M30.5753195,23.5862069 C29.8286035,23.5862069 29.3306497,23.324153 28.832839,22.8000452 C28.3350283,22.2759374 28.0861229,21.4896251 28.0861229,20.9655172 C28.0861229,20.4414094 28.3350283,19.6550971 28.832839,19.1309893 C29.8286035,18.0827737 31.3221786,18.0827737 32.3178001,19.1309893 C32.8156108,19.6550971 33.0645161,20.4414094 33.0645161,20.9655172 C33.0645161,21.7518296 32.8156108,22.2759374 32.3178001,22.8000452 C31.8199894,23.324153 31.3220356,23.5862069 30.5753195,23.5862069 Z" id="Combined-Shape" fill="#00A3E7" fill-rule="nonzero"></path>
                                        </g>
                                    </g>
                                </g>
                            </g>
                        </g>
                    </g>
                </g>
            </g>
        </g>
    </g>
</svg>