<?xml version="1.0" encoding="UTF-8"?>
<svg width="27px" height="27px" viewBox="0 0 27 27" version="1.1" xmlns="http://www.w3.org/2000/svg" xmlns:xlink="http://www.w3.org/1999/xlink">
    <!-- Generator: sketchtool 49.1 (51147) - http://www.bohemiancoding.com/sketch -->
    <title>B93D0D02-3FB2-4712-B5F2-7D4250A5A109</title>
    <desc>Created with sketchtool.</desc>
    <defs></defs>
    <g id="z" stroke="none" stroke-width="1" fill="none" fill-rule="evenodd">
        <g id="22-1-Waiting-for-bids-" transform="translate(-203.000000, -2053.000000)" fill="#39A2E0">
            <g id="FAQ" transform="translate(76.000000, 1739.847675)">
                <g id="4" transform="translate(127.000000, 312.474078)">
                    <g id="Forma-1-copy" transform="translate(0.000000, 0.000000)">
                        <path d="M25.765,5.84475681 C25.6883094,5.61758001 25.5080337,5.43878117 25.277771,5.36151923 C25.0475083,5.2842573 24.7937717,5.31742844 24.592,5.4511705 L18.692,9.43623196 L17.775,10.7547461 C18.3641275,11.6074063 18.5575135,12.6661359 18.307,13.6672849 L17.649,16.2551149 C20.5067562,16.1955078 23.1712877,14.8227001 24.849,12.5455639 C26.2244603,10.5841094 26.5648424,8.09411556 25.765,5.84475681 Z M9.355,11.2565687 L6.909,11.8567878 C6.52398698,11.9510785 6.15389027,12.0967435 5.809,12.2897328 L6.887,15.4679423 L6.94,15.4285836 C7.18990565,15.2691155 7.4811458,15.1837251 7.779,15.1825922 L9.758,15.1825922 C9.868,15.1825922 9.975,15.1924319 10.084,15.2022715 C9.9218342,13.873813 9.67839228,12.5561869 9.355,11.2565687 Z M4.476,13.1261037 L0.862,15.5466595 C0.313633123,15.8704714 -0.0135152894,16.4610951 0.00711180867,17.0900486 C0.0277389067,17.7190021 0.392906451,18.2876431 0.961349733,18.5759932 C1.52979301,18.8643434 2.21235988,18.8271792 2.745,18.4788776 L5.582,16.3830305 L4.476,13.1261037 Z M10.476,21.3126991 L8.405,24.0382843 C8.06053845,24.5619068 8.02867347,25.2272904 8.32156762,25.7804646 C8.61446176,26.3336388 9.18691109,26.6892294 9.82041728,26.7115108 C10.4539235,26.7337922 11.0507141,26.4193257 11.383,25.88814 L13.8,22.4049011 L10.476,21.3126991 Z M21.642,2.54847141 C21.7778167,2.34882513 21.8114902,2.09836273 21.733105,1.87083417 C21.6547198,1.64330562 21.4732019,1.46461982 21.242,1.38739177 C18.9533276,0.605210173 16.4229645,0.941322781 14.427,2.2926403 C11.833,4.08345804 10.082,7.71429182 10.807,10.7153875 C11.3727798,12.814068 11.6892281,14.9702446 11.75,17.1406841 L11.75,19.0889364 C11.7507625,19.380258 11.6618623,19.6649799 11.495,19.905628 L11.406,20.0335436 L14.652,21.0962266 C14.864919,20.7359654 15.0264344,20.3485841 15.132,19.9449866 L16.818,13.3032175 C16.9962997,12.5913256 16.787459,11.8393435 16.266,11.3156066 L16.251,11.2959273 C16.0061983,11.0527452 15.9717662,10.6726279 16.169,10.3906788 L21.642,2.54847141 Z M13.897,13.952635 C13.5873162,13.9518318 13.308674,13.7673933 13.1911963,13.4854502 C13.0737186,13.2035071 13.1405832,12.8796853 13.360565,12.6652062 C13.5805469,12.450727 13.9102446,12.3879062 14.195693,12.5060802 C14.4811415,12.6242543 14.666023,12.9001081 14.664,13.204821 C14.6632144,13.4049681 14.5812406,13.5965213 14.4362857,13.7369349 C14.2913308,13.8773485 14.095396,13.9549973 13.892,13.952635 L13.897,13.952635 Z" id="Forma_1_copy"></path>
                    </g>
                </g>
            </g>
        </g>
    </g>
</svg>