<?xml version="1.0" encoding="UTF-8"?>
<svg width="84px" height="84px" viewBox="0 0 84 84" version="1.1" xmlns="http://www.w3.org/2000/svg" xmlns:xlink="http://www.w3.org/1999/xlink">
    <!-- Generator: sketchtool 49.1 (51147) - http://www.bohemiancoding.com/sketch -->
    <title>512FABFF-A0B3-42E5-8DF3-757E0E54BBF2</title>
    <desc>Created with sketchtool.</desc>
    <defs></defs>
    <g id="z" stroke="none" stroke-width="1" fill="none" fill-rule="evenodd">
        <g id="22-3Waiting-for-bids-hover-State" transform="translate(-259.000000, -491.000000)">
            <g id="2" transform="translate(185.000000, 490.000000)">
                <g id="Group-10">
                    <g id="1" transform="translate(0.000000, 1.000000)">
                        <g id="Get-bids" transform="translate(74.000000, 0.000000)">
                            <circle id="Oval" fill="#FDE9CB" cx="42" cy="42" r="42"></circle>
                            <g id="quote-icon" transform="translate(17.000000, 19.000000)">
                                <g id="chat-copy" transform="translate(34.500000, 19.000000) scale(-1, 1) translate(-34.500000, -19.000000) translate(18.000000, 0.000000)">
                                    <polygon id="Path-2" fill="#FBFBFC" points="1.18826023 2.78955753 1.18826023 23.711239 2.37652047 26.5007966 9.50608187 27.8955753 9.50608187 36.2642479 16.6356433 27.8955753 29.7065058 27.8955753 32.0830263 23.711239 32.0830263 2.78955753 19.0121637 1.39477877"></polygon>
                                    <path d="M28.6012964,0.88210175 C24.5850618,0.883593941 18.378425,0.879603903 9.98138596,0.870131635 L4.22782991,0.884340037 C1.89646333,0.884340037 0,3.107537 0,5.84056485 L0,23.509966 C0,26.2429938 1.89646333,28.465355 4.22782991,28.465355 L8.55547368,28.465355 L8.55547368,36.8232384 C8.55547368,37.1684189 8.73656454,37.4784964 9.01176561,37.6030289 C9.09518148,37.6406393 9.18216213,37.6590267 9.26842982,37.6590267 C9.46520572,37.6590267 9.65841683,37.562911 9.79601737,37.3857239 L16.7145438,28.4636834 L28.5681525,28.4068498 C30.8995191,28.4068498 32.7959825,26.1836529 32.7959825,23.4514608 C32.7959825,13.3962687 32.7959825,6.97389383 32.7959825,4.1843363 C32.0830263,1.39477877 29.7616488,0.881670633 28.6012964,0.88210175 Z M31.3700702,23.450625 C31.3700702,25.2617783 30.1131285,26.7344374 28.5653007,26.7344374 L16.3951394,26.7929426 C16.1955117,26.7937784 16.0044394,26.8932372 15.8704037,27.0662454 L9.98138596,34.6610539 L9.98138596,27.6287309 C9.98138596,27.1673757 9.66269457,26.7929426 9.26842982,26.7929426 L4.22782991,26.7929426 C2.68285396,26.7929426 1.42591228,25.3194477 1.42591228,23.5091302 L1.42591228,5.83972906 C1.42591228,4.02857575 2.68285396,2.55508091 4.22925582,2.55508091 L10.6943421,2.53920094 C10.6948174,2.53920094 16.6527542,2.52471394 28.5681525,2.49573994 C30.1131285,2.49573994 31.3700702,3.96923477 31.3700702,5.78038809 L31.3700702,21.1931607 L31.3700702,23.450625 Z M28.5667266,0.824999065 L11.4072982,0.865952694 C24.4021122,0.838650275 30.1219216,0.824999065 28.5667266,0.824999065 Z" id="Shape" stroke="#FF9000" stroke-width="0.8" fill="#FF9000" fill-rule="nonzero"></path>
                                    <text id="$26" transform="translate(17.816470, 15.528128) scale(-1, 1) translate(-17.816470, -15.528128) " font-family="ProximaNova-Bold, Proxima Nova" font-size="13" font-weight="bold" fill="#00A3E7">
                                        <tspan x="5.81646986" y="19.5281284">$26</tspan>
                                    </text>
                                </g>
                                <g id="chat-copy-2" transform="translate(0.000000, 8.000000)">
                                    <polygon id="Path-2" fill="#FBFBFC" points="1.18826023 2.78955753 1.18826023 23.711239 2.37652047 26.5007966 9.50608187 27.8955753 9.50608187 36.2642479 16.6356433 27.8955753 29.7065058 27.8955753 32.0830263 23.711239 32.0830263 2.78955753 19.0121637 1.39477877"></polygon>
                                    <path d="M28.6012964,0.88210175 C24.5850618,0.883593941 18.378425,0.879603903 9.98138596,0.870131635 L4.22782991,0.884340037 C1.89646333,0.884340037 0,3.107537 0,5.84056485 L0,23.509966 C0,26.2429938 1.89646333,28.465355 4.22782991,28.465355 L8.55547368,28.465355 L8.55547368,36.8232384 C8.55547368,37.1684189 8.73656454,37.4784964 9.01176561,37.6030289 C9.09518148,37.6406393 9.18216213,37.6590267 9.26842982,37.6590267 C9.46520572,37.6590267 9.65841683,37.562911 9.79601737,37.3857239 L16.7145438,28.4636834 L28.5681525,28.4068498 C30.8995191,28.4068498 32.7959825,26.1836529 32.7959825,23.4514608 C32.7959825,13.3962687 32.7959825,6.97389383 32.7959825,4.1843363 C32.0830263,1.39477877 29.7616488,0.881670633 28.6012964,0.88210175 Z M31.3700702,23.450625 C31.3700702,25.2617783 30.1131285,26.7344374 28.5653007,26.7344374 L16.3951394,26.7929426 C16.1955117,26.7937784 16.0044394,26.8932372 15.8704037,27.0662454 L9.98138596,34.6610539 L9.98138596,27.6287309 C9.98138596,27.1673757 9.66269457,26.7929426 9.26842982,26.7929426 L4.22782991,26.7929426 C2.68285396,26.7929426 1.42591228,25.3194477 1.42591228,23.5091302 L1.42591228,5.83972906 C1.42591228,4.02857575 2.68285396,2.55508091 4.22925582,2.55508091 L10.6943421,2.53920094 C10.6948174,2.53920094 16.6527542,2.52471394 28.5681525,2.49573994 C30.1131285,2.49573994 31.3700702,3.96923477 31.3700702,5.78038809 L31.3700702,21.1931607 L31.3700702,23.450625 Z M28.5667266,0.824999065 L11.4072982,0.865952694 C24.4021122,0.838650275 30.1219216,0.824999065 28.5667266,0.824999065 Z" id="Shape" stroke="#FF9000" stroke-width="0.8" fill="#FF9000" fill-rule="nonzero"></path>
                                    <text id="$24" font-family="ProximaNova-Bold, Proxima Nova" font-size="13" font-weight="bold" fill="#00A3E7">
                                        <tspan x="5.20026053" y="19.2151125">$24</tspan>
                                    </text>
                                </g>
                            </g>
                        </g>
                    </g>
                </g>
            </g>
        </g>
    </g>
</svg>