<?xml version="1.0" encoding="UTF-8"?>
<svg width="186px" height="27px" viewBox="0 0 186 27" version="1.1" xmlns="http://www.w3.org/2000/svg" xmlns:xlink="http://www.w3.org/1999/xlink">
    <!-- Generator: sketchtool 49.1 (51147) - http://www.bohemiancoding.com/sketch -->
    <title>CF9D0F75-4CD5-41CE-B8D6-5EFBE5164EEA</title>
    <desc>Created with sketchtool.</desc>
    <defs>
        <polygon id="path-1" points="0 0.13801217 23.63235 0.13801217 23.63235 26.6612068 0 26.6612068"></polygon>
        <polygon id="path-3" points="0.497575758 0.139764706 24.9172727 0.139764706 24.9172727 26.5016912 0.497575758 26.5016912"></polygon>
        <polygon id="path-5" points="0.137045455 0.138169002 24.9211364 0.138169002 24.9211364 26.661442 0.137045455 26.661442"></polygon>
    </defs>
    <g id="z" stroke="none" stroke-width="1" fill="none" fill-rule="evenodd">
        <g id="1-Home-Page-" transform="translate(-98.000000, -28.000000)">
            <g id="Header" transform="translate(-2.000000, 0.000000)">
                <g id="Logo" transform="translate(100.000000, 28.000000)">
                    <g id="Group-3">
                        <mask id="mask-2" fill="white">
                            <use xlink:href="#path-1"></use>
                        </mask>
                        <g id="Clip-2"></g>
                        <path d="M23.16285,12.0013345 L21.46485,24.7345255 C18.8631,25.9437003 15.2496,26.6612068 12.0336,26.6612068 C4.33635,26.6612068 -0.00015,22.5051584 -0.00015,15.1756144 C-0.00015,6.18208266 6.46785,0.137776922 16.04535,0.137776922 C19.1886,0.137776922 21.79035,0.780004011 23.63235,1.34695173 L21.5016,8.37537834 C20.20035,7.92134967 18.5016,7.46732099 16.4061,7.46732099 C10.9491,7.46732099 9.1431,10.6039612 9.1431,14.0793586 C9.1431,17.9335053 11.3466,19.3316627 13.5516,19.3316627 C13.9131,19.3316627 14.16585,19.2932388 14.41635,19.2563833 L15.3936,12.0013345 L23.16285,12.0013345 Z" id="Fill-1" fill="#FFFFFF" mask="url(#mask-2)"></path>
                    </g>
                    <polygon id="Fill-4" fill="#FFFFFF" points="60.8776357 7.02662041 60.59565 9.20814271 69.5001162 9.20814271 68.6212851 15.7181676 59.7153578 15.7181676 59.4341026 18.010992 69.606774 18.010992 68.6563507 25 50 25 53.3451104 0 72 0 71.0495766 7.02662041"></polygon>
                    <polygon id="Fill-6" fill="#FFFFFF" points="81.8776276 7.02662041 81.5948926 9.20814271 90.5014114 9.20814271 89.6210607 15.7181676 80.7152725 15.7181676 80.433268 18.010992 90.6073457 18.010992 89.6568592 25 71 25 74.344602 0 93 0 92.0495135 7.02662041"></polygon>
                    <polygon id="Fill-8" fill="#FFFFFF" points="119 0 115.741457 25 107.714348 25 102.465936 12.1680125 100.785049 25 93 25 96.2578313 0 104.729901 0 109.567525 12.7590654 111.213527 0"></polygon>
                    <g id="Group-12" transform="translate(121.000000, 0.000000)">
                        <mask id="mask-4" fill="white">
                            <use xlink:href="#path-3"></use>
                        </mask>
                        <g id="Clip-11"></g>
                        <path d="M11.1195455,12.9198971 C12.6157576,13.03425 16.0112121,12.8039559 16.0112121,9.82125 C16.0112121,7.52466176 13.1271212,7.25625 11.8490909,7.44763235 L11.1195455,12.9198971 Z M24.9172727,8.97789706 C24.9172727,17.5114853 16.74,20.4179559 10.2437879,19.8446029 L9.3680303,26.5016912 L0.497575758,26.5016912 C3.92939394,0.790544118 3.96651515,0.751632353 3.96651515,0.751632353 C5.57181818,0.484014706 8.49075758,0.139367647 12.4695455,0.139367647 C18.2013636,0.139367647 24.9172727,2.09051471 24.9172727,8.97789706 Z" id="Fill-10" fill="#FFFFFF" mask="url(#mask-4)"></path>
                    </g>
                    <polygon id="Fill-13" fill="#FFFFFF" points="178.025162 17.9741472 186 17.9741472 185.113831 25 169 25 172.118279 0 180.256591 0"></polygon>
                    <path d="M153.652942,14.4224569 L156.340921,7.28530197 L157.268586,15.5301053 C155.738918,14.8246799 154.466734,14.5375971 153.652942,14.4224569 Z M162.456691,0 L152.147209,0 L141,25 L149.702207,25 L151.690267,19.6337008 C157.03939,21.3055359 158.334059,25 158.334059,25 L167,25 L162.456691,0 Z" id="Fill-15" fill="#FFFFFF"></path>
                    <g id="Group-19" transform="translate(24.000000, 0.000000)">
                        <mask id="mask-6" fill="white">
                            <use xlink:href="#path-5"></use>
                        </mask>
                        <g id="Clip-18"></g>
                        <path d="M18.3605303,16.7545207 C16.1453788,12.9803583 15.1787121,6.40674451 10.7620455,5.4077246 C11.8734091,5.74805006 13.1999242,6.29696211 14.5499242,10.1769861 C15.2582576,12.1475803 15.6673485,14.8545008 16.5400758,17.2038444 C16.3188636,17.2156068 16.0961364,17.2148226 15.8703788,17.1967869 C13.6090152,17.0172143 11.7991667,15.3571474 11.2597727,13.2054122 C9.32265152,4.98114153 5.67416667,3.49907902 5.67416667,3.49907902 C16.7249242,3.13679707 21.437803,7.83156334 21.437803,11.7406012 C21.4415909,11.9146848 21.4362879,12.0911208 21.4241667,12.2675568 C21.2741667,14.2703016 20.0809848,15.9295843 18.4370455,16.7184493 C22.0650758,15.423801 24.9211364,13.0023148 24.9211364,7.88331791 C24.9211364,1.72530896 18.9340152,0.138169002 12.6938636,0.138169002 C9.59083333,0.138169002 5.61204545,0.516134151 3.56810606,0.893315139 L0.137045455,26.1691463 L8.8605303,26.1691463 L9.95598485,18.1981593 C10.102197,18.1981593 10.2484091,18.1981593 10.3946212,18.1605196 C13.0575,24.7349176 14.9196212,26.6615988 18.4612879,26.6615988 C20.5779545,26.6615988 22.1105303,26.3204892 23.4249242,25.9056685 L24.2287121,19.7845151 C22.8415909,19.7845151 20.5756818,20.528683 18.3605303,16.7545207" id="Fill-17" fill="#FFFFFF" mask="url(#mask-6)"></path>
                    </g>
                </g>
            </g>
        </g>
    </g>
</svg>