<?xml version="1.0" encoding="UTF-8"?>
<svg width="84px" height="84px" viewBox="0 0 84 84" version="1.1" xmlns="http://www.w3.org/2000/svg" xmlns:xlink="http://www.w3.org/1999/xlink">
    <!-- Generator: sketchtool 49.1 (51147) - http://www.bohemiancoding.com/sketch -->
    <title>3CC0F5FE-589B-4C33-A490-84A77CA49F30</title>
    <desc>Created with sketchtool.</desc>
    <defs></defs>
    <g id="z" stroke="none" stroke-width="1" fill="none" fill-rule="evenodd">
        <g id="22-3Waiting-for-bids-hover-State" transform="translate(-523.000000, -491.000000)">
            <g id="2" transform="translate(185.000000, 490.000000)">
                <g id="Group-10">
                    <g id="2" transform="translate(287.000000, 1.000000)">
                        <g id="1">
                            <g id="Group-8">
                                <g id="Group-15">
                                    <g id="Pro" transform="translate(51.000000, 0.000000)">
                                        <g id="icon-copy-5" fill="#FDE9CB">
                                            <circle id="Oval" cx="42" cy="42" r="42"></circle>
                                        </g>
                                        <g id="Group" transform="translate(17.000000, 17.000000)">
                                            <polygon id="Path-3" fill="#FFFFFF" points="13 32 13 27.125 18.8823529 20.625 24.7647059 19 30.6470588 19 36.5294118 25.5 38 32"></polygon>
                                            <polygon id="Path-4" fill="#00A3E7" points="1 41.5 5.5 40 7 37 8.5 40 13 41.5 10 44.5 11.5 49 7 47.5 2.5 49 4 44.5"></polygon>
                                            <path d="M18,40.6734694 L18.8125,40.3673469 L21.9,40.3673469 L24.5,37 L27.1,40.6734694 L31,40.6734694 C28.4,43.9387755 27.5333333,46.3877551 28.4,48.0204082 C29.2666667,49.6530612 27.9666667,49.244898 24.5,46.7959184 L21.25,48.7857143 L20.6,48.0204082 L20.6,44.3469388 L18,40.6734694 Z" id="Path-4-Copy" fill="#00A3E7"></path>
                                            <path d="M36,40.8109641 L36.8125,40.4933837 L40.7125,40.4933837 L42.5,37 L45.1,40.8109641 L49,40.8109641 C47.1384606,42.3312785 46.1092939,43.4957397 45.9125,44.3043478 C45.5548643,45.7738402 47.2125,47.8529625 47.2125,48.4328922 C47.2125,49.4914934 45.6416667,49.0680529 42.5,47.1625709 L39.4125,48.4328922 L38.6,48.4328922 L38.6,44.6219282 L36,40.8109641 Z" id="Path-4-Copy-3" fill="#00A3E7"></path>
                                            <polygon id="Path-5" fill="#FFFFFF" points="25.2222222 15 20.5555556 13.4444444 19 10.3333333 19 4.11111111 23.6666667 1 29.8888889 1 33 7.22222222 33 8.77777778 33 11.8888889 29.8888889 13.4444444 28.3333333 15"></polygon>
                                            <g id="customer" fill="#FF9000" fill-rule="nonzero" stroke="#FF9000">
                                                <path d="M25.7352941,16.1764706 C30.1951683,16.1764706 33.8235294,12.548134 33.8235294,8.08818065 C33.8235294,3.62833659 30.1951683,0 25.7352941,0 C21.2754199,0 17.6470588,3.62833659 17.6470588,8.08818065 C17.6470588,12.548134 21.2754199,16.1764706 25.7352941,16.1764706 Z M25.7352941,1.63940746 C29.2911929,1.63940746 32.1841109,4.53230587 32.1841109,8.08818065 C32.1841109,11.6440554 29.2911929,14.5370631 25.7352941,14.5370631 C22.1793953,14.5370631 19.2864774,11.6440554 19.2864774,8.08818065 C19.2864774,4.53230587 22.1793953,1.63940746 25.7352941,1.63940746 Z" id="Shape" stroke-width="0.8"></path>
                                                <path d="M38.0422651,30.7254521 L19.1297067,30.7254521 C18.6777684,30.7254521 18.3113733,31.0896842 18.3113733,31.5391967 C18.3113733,31.9887091 18.6777684,32.3529412 19.1297067,32.3529412 L38.8875489,32.3529412 C39.3394872,32.3529412 39.7058824,31.9887091 39.7058824,31.5391967 C39.7058824,23.8790398 33.4387576,17.6470588 25.7352941,17.6470588 C18.0318306,17.6470588 11.7647059,23.8790398 11.7647059,31.5391967 C11.7647059,31.9887091 12.131101,32.3529412 12.5830393,32.3529412 L20.2681377,32.3529412 C20.720076,32.3529412 21.0864711,31.9887091 21.0864711,31.5391967 C21.0864711,31.0896842 20.720076,30.7254521 20.2681377,30.7254521 L13.4282141,30.7254521 C13.8506923,24.3403787 19.2092487,19.2745479 25.7352941,19.2745479 C32.2614486,19.2745479 37.6198959,24.3403787 38.0422651,30.7254521 Z" id="Shape" stroke-width="0.8"></path>
                                                <path d="M14.0784822,40.3212075 L9.95317754,39.5970439 L8.0199204,35.7171844 C7.89037483,35.4571986 7.6333893,35.2941176 7.35304144,35.2941176 C7.07269359,35.2941176 6.81570806,35.4571986 6.68616248,35.7171844 L4.75290535,39.5970439 L0.627600728,40.3212075 C0.351163307,40.3697647 0.123455877,40.5750056 0.0368247807,40.8538688 C-0.0498063155,41.1326272 0.019077438,41.438758 0.215401149,41.6478793 L3.14591857,44.7700152 L2.52957441,49.0974823 C2.48826421,49.3875672 2.60457448,49.6774424 2.83137951,49.8497524 C3.05798399,50.0221673 3.35768347,50.0481764 3.60855268,49.9175018 L7.35294118,47.967137 L11.0973297,49.9175018 C11.2034127,49.9726662 11.3182189,49.9999338 11.4324236,49.9999338 C11.58854,49.9999338 11.7436538,49.9491741 11.8745028,49.8496475 C12.1013079,49.6773375 12.2176181,49.3874623 12.1763079,49.0973774 L11.5599638,44.7699103 L14.4904812,41.6477744 C14.6868049,41.4386532 14.7556887,41.1325223 14.6690576,40.8537639 C14.582627,40.5750056 14.3549196,40.3697647 14.0784822,40.3212075 Z M10.2245013,43.9474787 C10.0593608,44.1234594 9.98255591,44.3703357 10.0173487,44.6143804 L10.4762729,47.8364624 L7.68833587,46.3842549 C7.47727284,46.2742408 7.22901058,46.2742408 7.01784728,46.3842549 L4.22980994,47.8364624 L4.68873417,44.6143804 C4.72352698,44.3703357 4.64682236,44.1233545 4.48158157,43.9474787 L2.29956083,41.6228141 L5.37115458,41.0835456 C5.60377512,41.0426443 5.80461087,40.8900508 5.91360161,40.671281 L7.35304144,37.7823876 L8.79248128,40.671281 C8.90147202,40.8900508 9.10230777,41.0426443 9.3349283,41.0835456 L12.4065221,41.6228141 L10.2245013,43.9474787 Z" id="Shape" stroke-width="0.5"></path>
                                                <path d="M31.725349,40.3212075 L27.6001006,39.5970439 L25.6668699,35.7171844 C25.5373261,35.4571986 25.280344,35.2941176 25,35.2941176 C24.719656,35.2941176 24.4626739,35.4571986 24.3331301,35.7171844 L22.3998994,39.5970439 L18.274651,40.3212075 C17.9982173,40.3697647 17.770513,40.5750056 17.6838831,40.8538688 C17.5972532,41.1326272 17.666136,41.438758 17.862457,41.6478793 L20.7929345,44.7700152 L20.176699,49.0974823 C20.1353894,49.3875672 20.2516981,49.6774424 20.4785,49.8497524 C20.7051014,50.0221673 21.0047968,50.0481764 21.2556626,49.9175018 L25,47.967137 L28.7443374,49.9175018 C28.850419,49.9726662 28.9652237,49.9999338 29.0794268,49.9999338 C29.2355411,49.9999338 29.3906527,49.9491741 29.5215,49.8496475 C29.7483019,49.6773375 29.8646106,49.3874623 29.823301,49.0973774 L29.2070655,44.7699103 L32.137543,41.6477744 C32.333864,41.4386532 32.4027468,41.1325223 32.3161169,40.8537639 C32.229487,40.5750056 32.0017827,40.3697647 31.725349,40.3212075 Z M27.8714207,43.9474787 C27.7062824,44.1234594 27.6294786,44.3703357 27.6642709,44.6143804 L28.1230886,47.8364624 L25.3351896,46.3842549 C25.2296094,46.3293003 25.1148047,46.301823 25,46.301823 C24.8851953,46.301823 24.7702904,46.3293003 24.6648104,46.3842549 L21.8769114,47.8364624 L22.3357291,44.6143804 C22.3705214,44.3703357 22.2938178,44.1233545 22.1285793,43.9474787 L19.9465883,41.6228141 L23.0181402,41.0835456 C23.2507575,41.0426443 23.4515905,40.8900508 23.5605798,40.671281 L25,37.7824925 L26.4394202,40.6713859 C26.5484095,40.8901557 26.7492425,41.0427491 26.9818598,41.0836505 L30.0534117,41.622919 L27.8714207,43.9474787 Z" id="Shape" stroke-width="0.5"></path>
                                                <path d="M49.9631804,40.8538688 C49.8765505,40.5750056 49.6489463,40.3697647 49.3724123,40.3212075 L45.2471626,39.5970439 L43.3139312,35.7171844 C43.1843874,35.4571986 42.9274053,35.2941176 42.6470612,35.2941176 C42.366717,35.2941176 42.1097349,35.4571986 41.9801911,35.7171844 L40.0469597,39.5970439 L35.92171,40.3212075 C35.6452763,40.3697647 35.4175719,40.5750056 35.3309419,40.8538688 C35.244312,41.1326272 35.3131948,41.438758 35.5095159,41.6478793 L38.4399943,44.7700152 L37.8236584,49.0974823 C37.7823487,49.3875672 37.8986574,49.6774424 38.1254594,49.8497524 C38.3520609,50.0221673 38.6517564,50.0481764 38.9026223,49.9175018 L42.6469609,47.967137 L46.3912995,49.9175018 C46.4973811,49.9726662 46.6121858,49.9999338 46.726389,49.9999338 C46.8825033,49.9999338 47.037615,49.9491741 47.1684624,49.8496475 C47.3952644,49.6773375 47.5115731,49.3874623 47.4702634,49.0973774 L46.8539275,44.7699103 L49.7844059,41.6477744 C49.9809275,41.438758 50.0498103,41.1326272 49.9631804,40.8538688 Z M45.5185831,43.9474787 C45.3534447,44.1234594 45.2766409,44.3703357 45.3114332,44.6143804 L45.7703513,47.8364624 L42.9823511,46.3842549 C42.8767709,46.3293003 42.7619662,46.301823 42.6471614,46.301823 C42.5322564,46.301823 42.4174517,46.3293003 42.3119717,46.3842549 L39.5240718,47.8364624 L39.9829899,44.6143804 C40.0177823,44.3703357 39.9410787,44.1233545 39.7758401,43.9474787 L37.5938484,41.6228141 L40.6654012,41.0835456 C40.8980187,41.0426443 41.0988517,40.8900508 41.207841,40.671281 L42.6472617,37.7823876 L44.0866824,40.671281 C44.1956717,40.8900508 44.3965047,41.0426443 44.6291222,41.0835456 L47.700675,41.6228141 L45.5185831,43.9474787 Z" id="Shape" stroke-width="0.5"></path>
                                            </g>
                                        </g>
                                    </g>
                                </g>
                            </g>
                        </g>
                    </g>
                </g>
            </g>
        </g>
    </g>
</svg>