<?xml version="1.0" encoding="UTF-8"?>
<svg width="45px" height="14px" viewBox="0 0 45 14" version="1.1" xmlns="http://www.w3.org/2000/svg" xmlns:xlink="http://www.w3.org/1999/xlink">
    <!-- Generator: sketchtool 49.1 (51147) - http://www.bohemiancoding.com/sketch -->
    <title>CC87F911-23D0-4CE9-89C3-7F94DE4BB14A</title>
    <desc>Created with sketchtool.</desc>
    <defs></defs>
    <g id="z" stroke="none" stroke-width="1" fill="none" fill-rule="evenodd" opacity="0.600000024">
        <g id="22-3Waiting-for-bids-hover-State" transform="translate(-667.000000, -526.000000)" fill="#00A3E7" fill-rule="nonzero">
            <g id="2" transform="translate(185.000000, 490.000000)">
                <g id="Group-10">
                    <path d="M522.94494,31.4169585 C523.027386,31.3221455 523.085098,31.2145075 523.13136,31.100915 C523.146017,31.0661044 523.155635,31.033126 523.16617,30.9978574 C523.192736,30.9103729 523.209225,30.8196821 523.214722,30.7248691 C523.21747,30.6900585 523.222966,30.65708 523.22205,30.6213534 C523.219302,30.4592093 523.197317,30.3534035 523.163422,30.2540101 C523.109374,30.1152258 523.051662,30.0181225 522.983415,29.9292639 C522.977002,29.9210193 521.395105,28.0528512 518.237724,24.3247594 C517.876335,23.8987878 517.283181,23.8905432 516.912173,24.3078122 C516.542082,24.7246232 516.535211,25.4080099 516.897516,25.8348977 L519.44327,28.8345626 C515.723575,28.341718 512.067089,29.1244981 511.894411,29.162973 C500.605704,31.2090111 487.266241,46.1715476 489.185633,57.4994291 C489.275521,58.0299309 489.656492,58.4118329 490.110404,58.4118329 C490.158956,58.4118329 490.207507,58.4077106 490.256975,58.399466 C490.768141,58.3064851 491.117163,57.754096 491.037465,57.1646062 C490.909201,56.2245107 490.910611,55.2380727 491.027204,54.2216505 C492.100143,44.8681251 502.927249,32.975413 512.215034,31.2914572 C512.262212,31.2804644 516.040077,30.4697441 519.597169,31.0285456 L515.668611,33.361313 C515.208287,33.6352174 515.028279,34.2865418 515.265083,34.8164872 C515.501429,35.3473486 516.065727,35.5530059 516.527425,35.2823078 L522.720045,31.6052105 C522.803865,31.5543687 522.878983,31.490702 522.94494,31.4169585 Z" id="Shape-Copy" transform="translate(506.111076, 41.205916) scale(1, -1) rotate(44.000000) translate(-506.111076, -41.205916) "></path>
                </g>
            </g>
        </g>
    </g>
</svg>