<?xml version="1.0" encoding="UTF-8"?>
<svg width="45px" height="13px" viewBox="0 0 45 13" version="1.1" xmlns="http://www.w3.org/2000/svg" xmlns:xlink="http://www.w3.org/1999/xlink">
    <!-- Generator: sketchtool 49.1 (51147) - http://www.bohemiancoding.com/sketch -->
    <title>B13C9BA1-98EA-40DA-887B-DCC033D6B0D3</title>
    <desc>Created with sketchtool.</desc>
    <defs></defs>
    <g id="z" stroke="none" stroke-width="1" fill="none" fill-rule="evenodd" opacity="0.600000024">
        <g id="22-3Waiting-for-bids-hover-State" transform="translate(-394.000000, -522.000000)" fill="#00A3E7" fill-rule="nonzero">
            <g id="2" transform="translate(185.000000, 490.000000)">
                <g id="Group-10">
                    <path d="M249.94494,31.4169585 C250.027386,31.3221455 250.085098,31.2145075 250.13136,31.100915 C250.146017,31.0661044 250.155635,31.033126 250.16617,30.9978574 C250.192736,30.9103729 250.209225,30.8196821 250.214722,30.7248691 C250.21747,30.6900585 250.222966,30.65708 250.22205,30.6213534 C250.219302,30.4592093 250.197317,30.3534035 250.163422,30.2540101 C250.109374,30.1152258 250.051662,30.0181225 249.983415,29.9292639 C249.977002,29.9210193 248.395105,28.0528512 245.237724,24.3247594 C244.876335,23.8987878 244.283181,23.8905432 243.912173,24.3078122 C243.542082,24.7246232 243.535211,25.4080099 243.897516,25.8348977 L246.44327,28.8345626 C242.723575,28.341718 239.067089,29.1244981 238.894411,29.162973 C227.605704,31.2090111 214.266241,46.1715476 216.185633,57.4994291 C216.275521,58.0299309 216.656492,58.4118329 217.110404,58.4118329 C217.158956,58.4118329 217.207507,58.4077106 217.256975,58.399466 C217.768141,58.3064851 218.117163,57.754096 218.037465,57.1646062 C217.909201,56.2245107 217.910611,55.2380727 218.027204,54.2216505 C219.100143,44.8681251 229.927249,32.975413 239.215034,31.2914572 C239.262212,31.2804644 243.040077,30.4697441 246.597169,31.0285456 L242.668611,33.361313 C242.208287,33.6352174 242.028279,34.2865418 242.265083,34.8164872 C242.501429,35.3473486 243.065727,35.5530059 243.527425,35.2823078 L249.720045,31.6052105 C249.803865,31.5543687 249.878983,31.490702 249.94494,31.4169585 Z" id="Shape-Copy-3" transform="translate(233.111076, 41.205916) rotate(40.000000) translate(-233.111076, -41.205916) "></path>
                </g>
            </g>
        </g>
    </g>
</svg>