<?xml version="1.0" encoding="UTF-8"?>
<svg width="46px" height="46px" viewBox="0 0 46 46" version="1.1" xmlns="http://www.w3.org/2000/svg" xmlns:xlink="http://www.w3.org/1999/xlink">
    <!-- Generator: sketchtool 49.1 (51147) - http://www.bohemiancoding.com/sketch -->
    <title>678FE07B-9E80-4D0F-96BE-6518C9E34973</title>
    <desc>Created with sketchtool.</desc>
    <defs></defs>
    <g id="z" stroke="none" stroke-width="1" fill="none" fill-rule="evenodd">
        <g id="22-1-Waiting-for-bids-" transform="translate(-1117.000000, -2494.000000)">
            <g id="Footer" transform="translate(75.000000, 2321.527525)">
                <g id="Social-icon" transform="translate(979.000000, 173.194014)">
                    <g id="twitter" transform="translate(64.000000, 0.000000)">
                        <circle id="Oval-Copy-2" stroke="#C7C6C6" cx="22" cy="22" r="22"></circle>
                        <g id="t-copy" transform="translate(12.000000, 14.000000)" fill="#C7C6C6" fill-rule="nonzero">
                            <path d="M20.34,1.89 C19.6117685,2.21137933 18.8401421,2.42366083 18.05,2.52 C18.8858299,2.01963587 19.5086368,1.22956087 19.8,0.3 C19.021964,0.767844135 18.169696,1.09928171 17.28,1.28 C16.5342243,0.467458279 15.4829024,0.0034265288 14.38,0 C12.1747529,0.0219907158 10.4033502,1.82470611 10.42,4.03 C10.4142116,4.33581308 10.4444192,4.64124541 10.51,4.94 C7.30674201,4.77953292 4.32708374,3.24963503 2.33,0.74 C1.97677118,1.35829251 1.79066297,2.0579215 1.79,2.77 C1.78926833,4.10562401 2.4478924,5.35551285 3.55,6.11 C2.92256258,6.09331536 2.30845616,5.92520801 1.76,5.62 L1.76,5.66 C1.75113052,7.56349111 3.07850344,9.21227194 4.94,9.61 C4.60064014,9.69930235 4.25090014,9.74301985 3.9,9.74 C3.64807793,9.7474302 3.39619593,9.72392121 3.15,9.67 C3.65596718,11.2997217 5.14411328,12.4258863 6.85,12.47 C5.45179316,13.5833931 3.71735179,14.1897425 1.93,14.19 C1.61238845,14.1899413 1.29509515,14.1699017 0.98,14.13 C2.78999108,15.3144497 4.90690596,15.9436149 7.07,15.94 C10.0901301,15.9391827 12.984119,14.7287907 15.1055344,12.57919 C17.2269498,10.4295892 18.399042,7.51987784 18.36,4.5 C18.36,4.32 18.36,4.15 18.35,3.98 C19.1334356,3.40846211 19.807529,2.70049463 20.34,1.89 Z" id="Forma_1"></path>
                        </g>
                    </g>
                </g>
            </g>
        </g>
    </g>
</svg>